<?xml version="1.0" encoding="UTF-8"?>
<svg id="Layer_1" xmlns="http://www.w3.org/2000/svg" version="1.1" viewBox="0 0 900 900">
  <!-- Generator: Adobe Illustrator 29.1.0, SVG Export Plug-In . SVG Version: 2.1.0 Build 142)  -->
  <defs>
    <style>
      .st0 {
        fill: #2c2c2c;
      }

      .st1 {
        fill: #ff9a00;
      }

      .st2 {
        opacity: .9;
      }

      .st3 {
        fill: #300;
      }

      .st4 {
        fill: #eeec7b;
      }
    </style>
  </defs>
  <path class="st0" d="M592.2,584.5c-.1,0-.2,0-.3,0-9.6.5-30.2.8-74.4.8-124,0-232.4-30.8-291.7-76.9,4.4,12.5,9.9,24.5,16.3,35.9,8.1,14.3,17.7,27.6,28.6,39.7,4.7,5.2,9.6,10.2,14.7,14.9,40.1,37,107.8,59.7,152.6,59.7s86.5-13.1,121.5-35.6c5.9-3.8,11.7-7.9,17.2-12.2,6.9-5.4,13.5-11.2,19.7-17.4,3.6-3.6,7.2-7.3,10.5-11.2-4.6,1.5-9.5,2.3-14.7,2.3Z"/>
  <g>
    <path class="st0" d="M426.7,275.9c-14,0-27.8.3-41.4,1-27.9,1.4-55,4.1-80.9,8,4-2.9,8-5.7,12.2-8.4,34.9-22.4,76.5-35.3,121.1-35.3s101.2,18.2,139.6,48.6c-46.4-8.9-97.2-13.8-150.5-13.8h-.1Z"/>
    <path class="st0" d="M595.5,305.9c4.1,4,8,8.2,11.8,12.5,17.1,19.6,30.8,42.2,40.3,66.9-48.2-18.2-103.9-32.9-163.9-42.4-59.9-9.5-117.3-12.6-168.7-10.3,56.5-19.5,126.4-31,202.1-31s24.9.3,37.1.9c14,.7,27.8,1.8,41.3,3.3h0Z"/>
    <polygon class="st0" points="647.6 385.4 647.6 385.4 647.6 385.4 647.6 385.4"/>
  </g>
  <g>
    <path class="st0" d="M256.7,422h-24.3c0,6.8-.1,11.9-.1,15.4v32c0,6,0,10,.1,12h-8.2c0-2,.1-6,.2-12.1v-31.6c0-3.4,0-8.6-.1-15.6h-24.3v-6.8h56.7v6.8h0Z"/>
    <path class="st0" d="M319.9,477.3l-6.2,5.1c-.7-.8-3.3-3.6-7.7-8.6-4.4-5-11.2-12.7-20.4-23.3v-.5c1.3-.3,3-1,5-2.2,2.1-1.1,3.8-2.3,5.3-3.6,1.2-1.1,2.3-2.5,3.2-4.2s1.4-3.9,1.4-6.6-.7-4.7-2-6.6c-1.3-1.8-3.2-3.2-5.5-4-1.9-.7-3.9-1.2-6-1.3-2.1-.1-4.1-.2-5.8-.2h-4.1c0,6.3-.1,11.8-.1,16.6v28.6c0,7.7,0,12.6.1,14.6h-8.2c0-2,0-5.8.1-11.5,0-5.7.1-12.8.1-21.3v-9.2c0-4.5,0-12.6-.2-24.4.3,0,2,0,5-.1s5.7-.1,8.2-.1,5.7.2,8.4.5c2.7.3,5.3,1,7.9,2.1,3.3,1.4,5.9,3.4,7.8,6.1s2.9,5.9,2.9,9.5-1.4,8.6-4.3,11.7-5.6,5.4-8.2,7v.2c4.5,5.3,9.5,10.7,14.9,16.4,5.4,5.6,8.3,8.6,8.7,9.1h0l-.3.2h0Z"/>
    <path class="st0" d="M388.2,478.6l-7.7,4c-.1-.4-1.2-2.8-3.2-7.4s-4.6-10.4-7.8-17.6h-29.3c-3.5,7.7-6.2,13.6-8.1,17.9-1.9,4.2-2.9,6.6-3.1,7.1l-6.6-3.6c.9-1.7,4.4-9.3,10.6-22.7s12.7-27.5,19.4-42.3h6.4c6.6,14.8,13.1,29.1,19.5,43s9.7,21.1,10,21.6h0ZM366.6,451.3c-1.8-4-3.6-8.2-5.5-12.6s-4-9-6.1-13.8h-.2c-1.7,3.7-3.7,8.1-6,13.4s-4.3,9.6-5.8,13h23.7-.1Z"/>
    <path class="st0" d="M455.2,417.3c-.2.4-3.7,7.9-10.5,22.6s-13.3,28.8-19.5,42.4h-6.6c-6.8-15.3-13.4-29.7-19.6-43.3-6.2-13.6-9.5-20.7-9.8-21.4l7.7-3.8c.2.7,3.2,7.5,8.9,20.6s11.3,25.4,16.6,37h.1c5.4-11.9,11-24.3,16.8-37.4s8.8-19.9,9-20.3l6.8,3.5h.1Z"/>
    <path class="st0" d="M509.7,481.2h-42.1c0-1.9.1-6.1.2-12.4v-34.6c0-6.1-.1-12.5-.2-19.1h41.5v6.9h-33.3c0,3.7,0,7.5-.1,11.2s-.1,7.2-.1,10.5h33.6v6.8h-33.6v14.9c0,3.7,0,6.7.1,9.2h34.1v6.9h0v-.3h-.1Z"/>
    <path class="st0" d="M569.4,481.2h-40.6c0-5.7,0-11.4.2-17.3s0-11.5,0-17.2v-21.5c0-4.9,0-8.4-.2-10.4h8.2c0,4.3,0,9.2-.2,14.8s0,10.1,0,13.7v30.9h32.5v6.9h0Z"/>
    <path class="st0" d="M618.1,481.3h-8.2c0-1,0-2.8.2-5.3s0-6.2,0-11v-7.4c0-3.1,0-6.2-.2-9.5h8.2c0,2.4,0,5.1-.2,8.3v19.4c0,2.8,0,4.6.2,5.6h0Z"/>
    <path class="st0" d="M700,448.1c0,5.4-.9,10.3-2.8,14.7s-4.2,8.2-7.2,11.1c-3.3,3.2-6.7,5.6-10.4,7.1s-7.6,2.2-11.8,2.2-8-.7-11.6-2.1-6.9-3.5-9.8-6.3c-3.2-3-5.8-6.8-7.7-11.4-2-4.6-2.9-9.7-2.9-15.4s.8-9.7,2.3-13.9,3.9-7.9,7-11.3c2.9-3.1,6.3-5.5,10.2-7.2s8.1-2.5,12.5-2.5,8.6.8,12.4,2.4c3.8,1.6,7.1,3.8,9.8,6.7,3.2,3.3,5.7,7.2,7.3,11.7s2.5,9.2,2.5,14.3h.2ZM691.6,448.9c0-4.3-.7-8.5-2.2-12.7-1.4-4.1-3.6-7.6-6.6-10.4-2-1.9-4.2-3.4-6.7-4.5s-5.2-1.6-8.3-1.6-5.7.5-8.3,1.6-4.9,2.6-7,4.7c-2.6,2.6-4.7,5.9-6.2,9.8s-2.2,8-2.2,12.2.8,9,2.3,12.8,3.6,7,6.4,9.6c1.9,1.8,4.1,3.3,6.7,4.4,2.6,1.1,5.3,1.7,8.3,1.7s5.7-.5,8.3-1.6,4.9-2.6,7-4.6c2.5-2.4,4.5-5.4,6.1-9.1s2.4-7.8,2.4-12.3h0Z"/>
  </g>
  <path class="st4" d="M595.5,305.9c-13.5-1.5-27.3-2.6-41.3-3.3-12.2-.6-24.5-.9-37.1-.9-75.7,0-145.6,11.5-202.1,31h0c-22.1,1-43.1,3-62.7,6,14.2-20.7,31.9-38.9,52.1-53.8h0c25.9-3.9,53-6.6,80.9-8,13.6-.7,27.4-1,41.4-1,53.3,0,104.1,4.9,150.5,13.8,6.4,5.1,12.5,10.5,18.3,16.2h0Z"/>
  <rect class="st0" x="580.4" y="474.3" width="6.6" height="7" rx="2" ry="2"/>
  <rect class="st0" x="610.7" y="433.9" width="6.6" height="7" rx="2" ry="2"/>
  <g class="st2">
    <path class="st3" d="M64.5,831h29.1c4.4,0,8,3.6,8,8v27.9c0,4.4-3.6,8-8,8h-29.1c-4.4,0-8-3.6-8-8v-27.9c0-4.4,3.6-8,8-8Z"/>
    <g>
      <path class="st1" d="M78.3,857.5h-7l-1.4,4.4c0,.2-.2.3-.4.3h-3.5c-.2,0-.3,0-.2-.3l6-17.4c0-.2,0-.4.2-.6v-1.2s0-.2.2-.2h4.9c.1,0,.2,0,.2.2l6.8,19.3c0,.2,0,.3-.2.3h-3.9s-.3,0-.3-.2l-1.5-4.5h.1ZM72.4,853.5h4.8c0-.4-.3-.9-.4-1.3-.2-.5-.3-1.1-.5-1.6-.2-.6-.4-1.1-.5-1.7s-.4-1.1-.5-1.7c-.2-.5-.3-1-.4-1.5h0c-.2.8-.4,1.6-.6,2.4-.3.9-.6,1.8-.9,2.8-.3,1-.5,1.8-.8,2.6,0,0-.2,0-.2,0Z"/>
      <path class="st1" d="M88.3,845.5c-.6,0-1.2-.2-1.7-.7-.4-.5-.7-1.1-.6-1.7,0-.6.2-1.2.7-1.7s1.1-.7,1.7-.7,1.3.2,1.7.7c.4.4.6,1.1.6,1.7s-.2,1.3-.7,1.7c-.4.4-1.1.7-1.7.7h0ZM86.2,861.8v-14.4c0-.2,0-.3.2-.3h3.7c.1,0,.2,0,.2.3v14.4c0,.2,0,.3-.2.3h-3.7c-.2,0-.3,0-.3-.3h0Z"/>
    </g>
  </g>
</svg>