<?xml version="1.0" encoding="UTF-8"?>
<svg xmlns="http://www.w3.org/2000/svg" xmlns:xlink="http://www.w3.org/1999/xlink" version="1.1" viewBox="0 0 900 900">
  <!-- Generator: Adobe Illustrator 29.1.0, SVG Export Plug-In . SVG Version: 2.1.0 Build 142)  -->
  <defs>
    <style>
      .st0 {
        fill: #2c2c2c;
      }

      .st1 {
        fill: url(#linear-gradient);
      }

      .st2 {
        fill: #eeec7b;
      }
    </style>
    <linearGradient id="linear-gradient" x1="158.95" y1="150.25" x2="758.8" y2="768.05" gradientUnits="userSpaceOnUse">
      <stop offset="0" stop-color="#fff" stop-opacity="0"/>
      <stop offset="0" stop-color="#fbfbfb" stop-opacity=".02"/>
      <stop offset=".63" stop-color="#2c2c2c"/>
    </linearGradient>
  </defs>
  <g id="Layer_2">
    <path class="st2" d="M369.38,899.34h388.24s96.4-.01,96.4-.01h45.47s0-111.47,0-111.47v-139.97s-.01-287.63-.01-287.63c-56.39,266.8-264.49,477.83-530.1,539.09Z"/>
  </g>
  <g id="Layer_1">
    <path class="st0" d="M505.75,453.42c-4.1,4.82-8.4,9.46-12.89,13.92-6.22,6.17-12.8,11.99-19.7,17.41-5.54,4.33-11.28,8.43-17.22,12.24-35.03,22.53-76.71,35.6-121.47,35.6-58.93,0-112.54-22.67-152.63-59.74-5.13-4.74-10.05-9.73-14.72-14.94-10.89-12.12-20.48-25.42-28.56-39.7-6.43-11.37-11.9-23.37-16.27-35.87,59.32,46.08,167.74,76.94,291.65,76.94,31.82,0,62.63-2.03,91.83-5.86h-.02,0Z"/>
    <g>
      <path class="st0" d="M323.51,149.71c-13.97,0-27.78.32-41.38.99-27.93,1.36-55,4.07-80.88,7.97,3.96-2.94,8.01-5.74,12.17-8.39,34.93-22.37,76.47-35.32,121.05-35.32,52.74,0,101.23,18.16,139.58,48.56-46.38-8.9-97.22-13.81-150.52-13.81h-.02,0Z"/>
      <path class="st0" d="M492.31,179.68c4.1,4.02,8.02,8.21,11.79,12.54,17.09,19.62,30.82,42.22,40.32,66.91-48.24-18.17-103.91-32.91-163.91-42.4-59.87-9.47-117.27-12.65-168.67-10.28,56.47-19.48,126.39-31.01,202.08-31.01,12.53,0,24.9.33,37.07.93,14.05.71,27.84,1.81,41.32,3.3h0Z"/>
    </g>
    <g>
      <path class="st0" d="M153.48,295.72c-.52,0-2.74-.02-6.64-.05-3.89-.03-9.79-.05-17.68-.05-.07,6.77-.12,11.92-.15,15.42s-.05,8.27-.05,14.32.02,11.72.07,17.72.09,9.99.12,11.97h-8.17c.07-1.98.12-6.03.17-12.14.05-6.12.07-12.09.07-17.94v-13.71c0-3.39-.05-8.6-.15-15.64-7.03-.03-12.73-.02-17.12.02-4.37.05-6.77.07-7.21.07v-6.83c3.4,0,7.53.02,12.41.05,4.87.03,10.06.05,15.57.05,7.99,0,14.67-.02,20.03-.05,5.37-.03,8.26-.05,8.69-.05v6.83h.04,0Z"/>
      <path class="st0" d="M216.66,351.09l-6.2,5.1c-.72-.76-3.3-3.62-7.72-8.6-4.42-4.97-11.23-12.73-20.44-23.27l.05-.45c1.25-.33,2.92-1.05,5-2.16,2.08-1.11,3.83-2.31,5.26-3.59,1.22-1.12,2.29-2.51,3.2-4.17s1.37-3.87,1.37-6.64c0-2.54-.67-4.73-2.01-6.57-1.34-1.83-3.17-3.18-5.52-4.04-1.92-.72-3.93-1.17-6.04-1.32-2.12-.15-4.06-.22-5.84-.22-1.19,0-2.1,0-2.72.02s-1.09.02-1.39.02c-.07,6.27-.11,11.82-.12,16.61-.02,4.79-.02,8.18-.02,10.16,0,4.52.02,10.67.07,18.44s.09,12.64.12,14.62h-8.17c.03-1.98.08-5.82.15-11.52.07-5.7.1-12.78.1-21.27v-9.16c0-4.46-.08-12.58-.25-24.37.32,0,1.98-.03,4.95-.1s5.71-.1,8.21-.1c2.87,0,5.66.17,8.36.49,2.7.32,5.34,1.04,7.92,2.13,3.27,1.39,5.85,3.42,7.77,6.11,1.91,2.69,2.87,5.85,2.87,9.47,0,4.68-1.44,8.59-4.32,11.71s-5.61,5.43-8.18,6.96v.25c4.52,5.28,9.49,10.74,14.89,16.37,5.4,5.62,8.3,8.64,8.69,9.07h0l-.04.02h0Z"/>
      <path class="st0" d="M275.01,330.76c-6.38-13.86-12.87-28.18-19.47-42.97h-6.44c-6.71,14.79-13.18,28.89-19.4,42.31s-9.76,20.98-10.62,22.7l6.64,3.59c.2-.5,1.23-2.86,3.13-7.08,1.88-4.23,4.57-10.19,8.06-17.88h29.32c3.25,7.16,5.85,13.02,7.84,17.58,1.98,4.56,3.04,7.01,3.17,7.38l7.71-3.99h.02c-.27-.57-3.59-7.77-9.96-21.64ZM263.42,325.14h-23.72l.02-.05c1.54-3.37,3.48-7.7,5.82-12.99,2.34-5.29,4.35-9.75,6.01-13.38l.21-.04c2.13,4.79,4.18,9.38,6.12,13.77,1.95,4.4,3.79,8.61,5.54,12.64h-.01v.05h0Z"/>
      <path class="st0" d="M351.94,291.04c-.17.4-3.66,7.92-10.47,22.59-6.82,14.67-13.33,28.8-19.54,42.41h-6.59c-6.83-15.26-13.37-29.68-19.62-43.26-6.24-13.57-9.51-20.69-9.81-21.36l7.72-3.84c.23.66,3.22,7.53,8.94,20.62s11.26,25.42,16.57,36.97h.1c5.41-11.85,11.02-24.33,16.84-37.44,5.82-13.11,8.82-19.86,9.02-20.26l6.82,3.54h0l.02.02h0Z"/>
      <path class="st0" d="M406.47,354.95c-.3,0-2.49-.02-6.59-.05-4.09-.03-9.16-.05-15.2-.05-4.19,0-8.03.02-11.52.05s-6.43.05-8.84.05c.07-1.92.12-6.06.17-12.43.04-6.37.07-12.96.07-19.77,0-3.73-.02-8.67-.05-14.81s-.1-12.5-.2-19.07c2.34,0,5.27.02,8.79.05s7.14.05,10.87.05c6.31,0,11.44-.02,15.41-.05s6.11-.05,6.44-.05v6.88c-.33,0-2.4-.02-6.22-.07-3.82-.05-8.56-.07-14.24-.07-2.47,0-4.9,0-7.27.02s-4.26.02-5.65.02c0,3.73-.03,7.45-.1,11.17s-.1,7.22-.1,10.52c1.48,0,3.25,0,5.27.02,2.03.02,3.84.02,5.42.02,5.81,0,11-.02,15.57-.07s7.01-.07,7.31-.07v6.83c-.27,0-2.99-.02-8.17-.07-5.18-.05-9.92-.07-14.22-.07-1.58,0-3.47,0-5.67.02s-4.03.02-5.52.02c0,6.24.02,11.19.05,14.86s.07,6.73.1,9.22c1.95.03,4.31.06,7.08.07s5.76.02,8.97.02c4.92,0,9.06-.02,12.41-.05s5.22-.05,5.62-.05v6.88h.02v.03h-.01Z"/>
      <path class="st0" d="M466.2,354.95c-.4,0-2.48-.02-6.27-.05s-8.61-.05-14.48-.05c-3.87,0-7.54.02-11.02.05-3.48.03-6.43.05-8.84.05.07-5.68.13-11.43.17-17.26s.08-11.55.08-17.16c0-9.37-.03-16.52-.1-21.45-.07-4.92-.12-8.37-.15-10.35h8.17c-.07,4.26-.12,9.17-.15,14.75s-.05,10.14-.05,13.71c0,8.67.02,15.92.05,21.72s.05,8.87.05,9.2c1.35,0,2.99,0,4.9.02,1.92.02,3.65.02,5.2.02,5.91,0,11.05-.02,15.42-.07s6.71-.07,7.01-.07v6.93h.01,0Z"/>
      <path class="st0" d="M514.89,355.05h-8.17c.03-.99.08-2.77.15-5.32s.1-6.22.1-10.99c0-1.89-.02-4.37-.05-7.43-.03-3.07-.1-6.25-.2-9.55h8.17c-.07,2.37-.13,5.12-.18,8.27-.05,3.14-.08,5.71-.08,7.69,0,5.04.03,8.93.1,11.69s.12,4.64.15,5.63h.01Z"/>
      <path class="st0" d="M594.25,307.62c-1.67-4.48-4.12-8.37-7.35-11.67-2.78-2.84-6.06-5.06-9.85-6.66-3.8-1.6-7.98-2.4-12.37-2.4s-8.56.85-12.52,2.55c-3.96,1.7-7.37,4.11-10.24,7.21-3.1,3.34-5.42,7.1-6.97,11.27-1.55,4.17-2.32,8.81-2.32,13.89,0,5.7.97,10.85,2.94,15.42,1.96,4.58,4.54,8.36,7.74,11.37,2.91,2.78,6.17,4.87,9.8,6.27,3.63,1.41,7.39,2.11,11.58,2.11s8.1-.73,11.77-2.2c3.66-1.48,7.12-3.83,10.39-7.06,2.94-2.9,5.32-6.6,7.15-11.07s2.75-9.38,2.75-14.73v-.02c0-5.05-.83-9.8-2.5-14.28h0ZM588.33,322.71c0,4.49-.79,8.58-2.37,12.26-1.59,3.68-3.63,6.72-6.1,9.09-2.09,2.01-4.41,3.56-6.97,4.63-2.57,1.08-5.31,1.61-8.26,1.61s-5.71-.55-8.28-1.66-4.81-2.56-6.69-4.38c-2.75-2.61-4.87-5.79-6.37-9.56-1.51-3.76-2.26-8.02-2.26-12.78,0-4.22.74-8.28,2.21-12.18,1.47-3.9,3.53-7.17,6.17-9.81,2.09-2.08,4.41-3.66,6.97-4.73,2.57-1.08,5.26-1.61,8.31-1.61s5.79.52,8.26,1.58c2.46,1.06,4.69,2.54,6.67,4.46,2.95,2.8,5.13,6.28,6.57,10.42,1.44,4.15,2.16,8.37,2.16,12.66h-.02,0Z"/>
    </g>
    <path class="st2" d="M492.31,179.68c-13.47-1.49-27.27-2.59-41.32-3.3-12.17-.62-24.53-.93-37.07-.93-75.71,0-145.63,11.52-202.1,31.01h-.02c-22.09.99-43.07,3.02-62.66,6.01,14.24-20.71,31.88-38.92,52.11-53.79h.02c25.89-3.92,52.95-6.62,80.89-7.98,13.6-.66,27.41-.99,41.38-.99,53.3,0,104.14,4.91,150.52,13.81,6.38,5.06,12.48,10.47,18.27,16.17h-.02Z"/>
    <rect class="st0" x="477.13" y="348.03" width="6.59" height="7.02" rx="2" ry="2"/>
    <rect class="st0" x="507.51" y="307.69" width="6.59" height="7.02" rx="2" ry="2"/>
    <path class="st1" d="M900,361.99V0h-114.49c3.96,29.91,6.01,60.42,6.01,91.41,0,381.32-309.12,690.44-690.44,690.44-34.34,0-68.09-2.52-101.09-7.36v125.52h367.45c267.87-56.92,478.29-269.17,532.55-538.01h.01Z"/>
    <g>
      <path class="st0" d="M74.1,751.67c-.12,0-.56,0-1.34-.02-.78-.01-1.74-.02-2.87-.02-.51,0-.98,0-1.41,0-.43,0-.79,0-1.09,0,0,.77,0,1.61-.02,2.51s-.02,1.7-.02,2.38c.08,0,.32,0,.71,0,.39,0,.76,0,1.12,0,1.12,0,2.18,0,3.17-.02.99-.01,1.55-.02,1.66-.02v1.42c-.13,0-.76,0-1.89-.02-1.13,0-2.14-.01-3.04-.01-.28,0-.62,0-1,0-.39,0-.63,0-.72,0,0,1.21,0,2.35.02,3.43,0,1.08.02,1.94.03,2.6h-1.69c.01-.41.03-1.14.04-2.19.01-1.05.02-2.56.02-4.53,0-.77,0-1.79-.01-3.05s-.02-2.57-.04-3.93c.5,0,1.11,0,1.83,0,.72,0,1.48.01,2.28.01,1.2,0,2.18,0,2.96-.01.78,0,1.22,0,1.33,0v1.43Z"/>
      <path class="st0" d="M86.26,758.76c0,.79-.14,1.55-.43,2.28s-.69,1.34-1.23,1.86c-.45.43-.95.76-1.5.98-.55.23-1.17.34-1.87.34-.66,0-1.27-.11-1.85-.33-.57-.22-1.09-.55-1.54-.98-.52-.5-.92-1.11-1.21-1.85s-.43-1.5-.43-2.32.12-1.51.36-2.17c.24-.66.62-1.25,1.13-1.78.46-.48.99-.85,1.6-1.1.61-.26,1.25-.38,1.93-.38.71,0,1.35.12,1.93.35.58.24,1.09.59,1.54,1.06.52.54.91,1.15,1.16,1.82.25.67.38,1.41.38,2.22ZM84.62,758.83c0-.64-.1-1.27-.31-1.88-.21-.61-.53-1.12-.97-1.54-.27-.26-.58-.46-.95-.6-.37-.14-.75-.21-1.14-.21-.47,0-.88.08-1.23.23s-.68.39-.98.71c-.36.37-.65.84-.86,1.42-.21.57-.31,1.17-.31,1.78,0,.7.11,1.34.32,1.92.21.58.55,1.09,1.03,1.51.27.24.57.42.92.55.35.13.72.19,1.11.19.43,0,.83-.08,1.21-.23.37-.15.7-.37.98-.66.39-.4.69-.87.89-1.44.21-.56.31-1.15.31-1.76Z"/>
      <path class="st0" d="M97.6,763.95h-1.62c0-.19.02-.82.03-1.9,0-1.07.02-1.74.02-1.99,0-.35,0-.88,0-1.57,0-.69,0-1.2-.02-1.52-.02-.79-.17-1.35-.45-1.69s-.77-.51-1.46-.51c-.42,0-.93.12-1.55.37s-1.24.56-1.87.94c0,.08,0,.48-.01,1.22s-.01,1.41-.01,2.02c0,.79,0,1.75.03,2.87s.03,1.71.03,1.76h-1.62s0-.47.02-1.26c.01-.79.02-1.96.02-3.52,0-.72,0-1.56,0-2.52s-.02-1.99-.04-3.08h1.6v1.18s0,.02,0,.02c.96-.55,1.75-.93,2.39-1.14.64-.22,1.17-.32,1.59-.32.88,0,1.58.28,2.11.83.53.55.79,1.3.79,2.26,0,.86,0,1.6-.02,2.23-.01.63-.02,1.13-.02,1.52,0,.62,0,1.4.03,2.33.02.93.03,1.42.03,1.47Z"/>
      <path class="st0" d="M106.93,762.67l-.18,1.3s-.17.01-.35.02-.35.01-.49.01c-1.4,0-2.46-.29-3.18-.88-.72-.58-1.08-1.48-1.08-2.69,0-.76,0-1.57.02-2.44,0-.87.02-1.94.02-3.23h-1.72v-1.2h1.81v-2.43h1.49v2.43h3.67v1.2h-3.67c0,.14,0,.57-.02,1.28-.01.71-.02,1.24-.02,1.58v2.54c0,.89.24,1.53.72,1.92.48.39,1.22.59,2.21.59.12,0,.27,0,.44,0,.17,0,.28,0,.33,0Z"/>
      <path class="st0" d="M112.03,755.77h-2.05v-2.18h2.05v2.18ZM112.03,763.95h-2.05v-2.18h2.05v2.18Z"/>
      <path class="st0" d="M128.88,760.08c0,.7-.17,1.32-.5,1.85-.33.53-.78.96-1.34,1.29-.51.3-1.1.53-1.77.68-.66.15-1.4.23-2.21.23-.44,0-.89-.01-1.36-.04s-.74-.04-.82-.05l-.08-1.48c.1.01.36.04.8.08.44.04.95.06,1.55.06.36,0,.83-.05,1.4-.14s1.02-.22,1.32-.37c.4-.2.71-.44.93-.72.22-.28.32-.64.32-1.07,0-.46-.11-.85-.32-1.16-.21-.32-.57-.62-1.07-.92-.32-.19-.74-.41-1.25-.65s-.97-.49-1.38-.74c-.7-.42-1.19-.89-1.49-1.39-.3-.5-.45-1.06-.45-1.68s.14-1.17.41-1.63c.27-.46.62-.86,1.05-1.18.44-.33.97-.57,1.61-.74s1.34-.25,2.11-.25c.42,0,.85.01,1.29.04.43.02.68.04.74.05l.14,1.49c-.06,0-.31-.03-.75-.07s-.98-.06-1.62-.06c-.38,0-.78.04-1.18.13-.41.09-.76.22-1.07.39-.27.16-.51.38-.7.66-.19.28-.29.61-.29.98,0,.34.1.66.3.97.2.31.58.63,1.13.96.28.17.65.37,1.11.59.46.22.91.46,1.36.72.68.4,1.2.87,1.54,1.39.34.52.52,1.12.52,1.79Z"/>
      <path class="st0" d="M133.69,763.95h-1.62c0-.12.02-1.05.03-2.77,0-1.72.02-3.49.02-5.29,0-.77,0-1.75,0-2.92,0-1.17-.02-2.53-.04-4.05h1.62c-.02,1.21-.03,2.61-.04,4.21,0,1.6,0,2.55,0,2.85,0,.7,0,2.18.02,4.42.01,2.25.02,3.43.02,3.54ZM141.03,763.74l-.98.89c-1.51-1.54-2.86-2.88-4.04-4.02-1.19-1.14-1.84-1.77-1.96-1.89v-.02c.16-.15.88-.88,2.16-2.18,1.27-1.3,2.3-2.37,3.09-3.2l.99,1.03c-.81.79-1.67,1.62-2.56,2.49-.89.87-1.45,1.42-1.68,1.64h0c2,2.12,3.66,3.87,4.98,5.27Z"/>
      <path class="st0" d="M144.92,751.58h-1.8v-1.76h1.8v1.76ZM144.83,763.95h-1.62c0-.11.02-.78.03-2.02.01-1.24.02-2.26.02-3.07,0-.7,0-1.48,0-2.32,0-.84-.02-1.83-.04-2.97h1.62c-.01.98-.03,1.91-.04,2.76,0,.86-.02,1.62-.02,2.29,0,1.59,0,2.87.03,3.84.02.96.03,1.46.03,1.49Z"/>
      <path class="st0" d="M155.81,758.1c0,1.7,0,3.08-.01,4.14s-.01,1.64-.01,1.72c-.07,0-.39.03-.95.08-.57.04-1.3.07-2.19.07-.56,0-1.12-.05-1.69-.15-.57-.1-1.06-.25-1.47-.44-.55-.25-.99-.6-1.33-1.04-.34-.44-.51-.96-.51-1.58,0-.65.2-1.21.6-1.69.4-.47.96-.86,1.67-1.15.44-.18,1.04-.35,1.78-.5.74-.15,1.59-.26,2.54-.33-.04-.53-.17-.97-.4-1.31-.23-.34-.56-.6-.99-.78-.3-.12-.64-.21-1-.26-.37-.05-.8-.08-1.29-.08-.31,0-.57,0-.78.02-.22.01-.51.03-.88.05l.16-1.36c.1,0,.31-.02.61-.04.3-.02.72-.03,1.25-.03.81,0,1.53.08,2.16.25.63.17,1.16.44,1.57.82.39.36.68.79.88,1.32.2.52.3,1.28.3,2.27ZM154.24,760.57v-.88c0-.35,0-.76-.01-1.23-.3.01-.83.07-1.58.18-.75.11-1.38.26-1.9.46-.38.14-.72.36-1.02.65-.3.29-.45.64-.45,1.07,0,.46.13.84.38,1.12.25.28.6.5,1.04.65.33.12.71.2,1.11.25.41.05.84.08,1.29.08.14,0,.3,0,.5-.01s.41-.01.63-.02c0-.05,0-.27,0-.68s0-.95,0-1.63Z"/>
    </g>
    <g>
      <path class="st0" d="M728.69,838.14h-3.12c-.16.52-.33,1.02-.49,1.52s-.31.93-.44,1.3h2.74v1.22h-3.13c-.26.78-.51,1.56-.76,2.34s-.39,1.21-.41,1.29l-1.05-.42c.03-.09.15-.45.36-1.06s.44-1.33.71-2.15h-2.61c-.26.78-.51,1.56-.76,2.33s-.38,1.21-.42,1.3l-1.05-.42c.03-.09.15-.44.36-1.05s.44-1.34.71-2.16h-2.72v-1.22h3.12c.19-.56.35-1.04.47-1.42s.28-.85.45-1.41h-2.72v-1.22h3.12c.25-.77.5-1.52.74-2.27s.38-1.16.4-1.24l1.05.38c-.02.07-.14.41-.34,1.01s-.44,1.31-.7,2.12h2.62c.25-.77.5-1.52.74-2.27s.38-1.16.4-1.24l1.05.38s-.13.38-.33,1-.44,1.33-.71,2.13h2.72v1.22ZM724.42,838.14h-2.62c-.16.52-.33,1.02-.49,1.52s-.31.93-.44,1.3h2.62c.19-.56.35-1.04.47-1.42s.28-.85.45-1.41Z"/>
      <path class="st0" d="M743.63,845.51c-.07,0-.59,0-1.56-.01s-2.17-.01-3.6-.01c-.99,0-1.9,0-2.72.01s-1.52.01-2.09.01c.02-.45.03-1.43.04-2.94s.02-3.07.02-4.68c0-.88,0-2.05-.01-3.5s-.02-2.96-.05-4.51c.55,0,1.25,0,2.08.01s1.69.01,2.57.01c1.49,0,2.71,0,3.64-.01s1.45-.01,1.52-.01v1.63c-.08,0-.57,0-1.47-.02s-2.03-.02-3.37-.02c-.59,0-1.16,0-1.72,0s-1.01,0-1.34,0c0,.88,0,1.76-.02,2.64s-.02,1.71-.02,2.49c.35,0,.77,0,1.25,0s.91,0,1.28,0c1.38,0,2.6,0,3.69-.02s1.66-.02,1.73-.02v1.62c-.06,0-.71,0-1.93-.02s-2.35-.02-3.36-.02c-.38,0-.82,0-1.34,0s-.96,0-1.31,0c0,1.48,0,2.65.01,3.52s.02,1.59.02,2.18c.46,0,1.02.01,1.68.02s1.36,0,2.12,0c1.16,0,2.14,0,2.94-.01s1.24-.01,1.33-.01v1.63Z"/>
      <path class="st0" d="M758.13,845.51c-.07,0-.59,0-1.56-.01s-2.17-.01-3.6-.01c-.99,0-1.9,0-2.72.01s-1.52.01-2.09.01c.02-.45.03-1.43.04-2.94s.02-3.07.02-4.68c0-.88,0-2.05-.01-3.5s-.02-2.96-.05-4.51c.55,0,1.25,0,2.08.01s1.69.01,2.57.01c1.49,0,2.71,0,3.64-.01s1.45-.01,1.52-.01v1.63c-.08,0-.57,0-1.47-.02s-2.03-.02-3.37-.02c-.59,0-1.16,0-1.72,0s-1.01,0-1.34,0c0,.88,0,1.76-.02,2.64s-.02,1.71-.02,2.49c.35,0,.77,0,1.25,0s.91,0,1.28,0c1.38,0,2.6,0,3.69-.02s1.66-.02,1.73-.02v1.62c-.06,0-.71,0-1.93-.02s-2.35-.02-3.36-.02c-.38,0-.82,0-1.34,0s-.96,0-1.31,0c0,1.48,0,2.65.01,3.52s.02,1.59.02,2.18c.46,0,1.02.01,1.68.02s1.36,0,2.12,0c1.16,0,2.14,0,2.94-.01s1.24-.01,1.33-.01v1.63Z"/>
      <path class="st0" d="M772.62,845.51c-.07,0-.59,0-1.56-.01s-2.17-.01-3.6-.01c-.99,0-1.9,0-2.72.01s-1.52.01-2.09.01c.02-.45.03-1.43.04-2.94s.02-3.07.02-4.68c0-.88,0-2.05-.01-3.5s-.02-2.96-.05-4.51c.55,0,1.25,0,2.08.01s1.69.01,2.57.01c1.49,0,2.71,0,3.64-.01s1.45-.01,1.52-.01v1.63c-.08,0-.57,0-1.47-.02s-2.03-.02-3.37-.02c-.59,0-1.16,0-1.72,0s-1.01,0-1.34,0c0,.88,0,1.76-.02,2.64s-.02,1.71-.02,2.49c.35,0,.77,0,1.25,0s.91,0,1.28,0c1.38,0,2.6,0,3.69-.02s1.66-.02,1.73-.02v1.62c-.06,0-.71,0-1.93-.02s-2.35-.02-3.36-.02c-.38,0-.82,0-1.34,0s-.96,0-1.31,0c0,1.48,0,2.65.01,3.52s.02,1.59.02,2.18c.46,0,1.02.01,1.68.02s1.36,0,2.12,0c1.16,0,2.14,0,2.94-.01s1.24-.01,1.33-.01v1.63Z"/>
      <path class="st0" d="M787.54,844.1c0,.07-.03.27-.06.59s-.07.68-.1,1.06h-.41c-1.91,0-3.6-.24-5.09-.72s-2.7-1.18-3.66-2.09c-.66-.63-1.19-1.39-1.58-2.27s-.58-1.89-.58-3.02c0-1.02.19-1.94.57-2.78s.88-1.57,1.5-2.2c.9-.91,2.11-1.62,3.62-2.16s3.14-.8,4.86-.8h.53c0,.14.02.37.05.67s.05.64.08,1h-.4c-.98,0-1.99.11-3.04.32-1.05.21-1.95.54-2.71.97-.99.56-1.74,1.28-2.28,2.16s-.8,1.83-.8,2.84.24,2.01.72,2.88c.48.86,1.23,1.59,2.26,2.17.84.48,1.79.84,2.83,1.05,1.04.22,2.08.33,3.11.33h.22c.1,0,.21,0,.33-.01Z"/>
      <path class="st0" d="M799.45,835.1c-1.94,3.59-3.63,6.75-5.07,9.47s-2.26,4.26-2.44,4.61l-1.5-.71c1.73-3.1,3.26-5.95,4.61-8.55s2.11-4.09,2.29-4.46v-.02h-2.21c-1.44,0-2.83.01-4.17.04-1.34.02-2.06.04-2.14.04v-1.64c.07,0,.6,0,1.6,0s2.06,0,3.19,0c.87,0,1.89,0,3.08,0s1.84,0,1.96,0l.81,1.24Z"/>
      <path class="st0" d="M813.75,840.92c0,.78-.2,1.48-.6,2.11-.4.62-.99,1.14-1.75,1.54-.68.35-1.42.61-2.24.77s-1.74.24-2.79.24c-.77,0-1.57-.01-2.38-.04s-1.27-.04-1.36-.05c.02-1.5.04-2.92.05-4.25s.01-2.6.01-3.81c0-2.3,0-4.12-.03-5.46s-.03-2.04-.03-2.09c.11,0,.54-.03,1.29-.06s1.48-.05,2.19-.05c.8,0,1.54.05,2.22.16s1.25.25,1.72.44c.71.28,1.27.69,1.67,1.21.41.53.61,1.17.61,1.94,0,.8-.25,1.52-.76,2.14-.51.62-1.09,1.04-1.74,1.27v.12c.54.05,1.06.17,1.57.38.51.21.95.5,1.33.88.33.34.59.71.76,1.11.17.41.26.91.26,1.5ZM811.75,840.98c0-.4-.07-.76-.21-1.07s-.35-.62-.63-.91c-.27-.27-.63-.48-1.1-.64s-.97-.25-1.52-.25c-.44,0-.79,0-1.06.01s-.45.01-.53.01l-.19-1.41c.58-.02,1.09-.08,1.53-.21s.83-.3,1.18-.54c.33-.23.6-.53.81-.9s.32-.77.32-1.22c0-.48-.12-.89-.35-1.24-.23-.35-.55-.62-.96-.83-.34-.16-.76-.29-1.26-.37-.5-.08-1.03-.12-1.6-.12-.37,0-.7,0-1.01.02s-.5.02-.59.02c-.02,1.14-.04,2.35-.04,3.63s0,2.21,0,2.79c0,1.34,0,2.69.02,4.05s.02,2.08.02,2.17c.16,0,.37.02.63.03.26.01.51.02.75.02.9,0,1.73-.05,2.5-.14.77-.09,1.42-.29,1.95-.59.44-.24.77-.56,1.01-.95.24-.39.36-.85.36-1.37Z"/>
    </g>
    <g>
      <path class="st2" d="M111.44,838.62h-2.86c-.15.47-.3.94-.45,1.4s-.28.86-.4,1.19h2.51v1.12h-2.87c-.24.72-.47,1.43-.7,2.14-.23.71-.35,1.11-.38,1.19l-.97-.39c.03-.09.14-.41.33-.97.19-.56.41-1.22.65-1.97h-2.4c-.24.72-.47,1.43-.69,2.14s-.35,1.11-.38,1.19l-.97-.39c.03-.08.14-.4.33-.97s.41-1.22.65-1.98h-2.49v-1.12h2.86c.17-.52.32-.95.43-1.3s.26-.78.41-1.29h-2.49v-1.12h2.86c.23-.7.45-1.39.68-2.08.22-.68.34-1.06.37-1.13l.97.34c-.02.06-.13.37-.31.93-.19.55-.4,1.2-.64,1.94h2.41c.23-.7.45-1.39.68-2.08.22-.68.34-1.06.37-1.13l.97.34s-.12.35-.31.91-.41,1.22-.65,1.96h2.49v1.12ZM107.53,838.62h-2.41c-.15.47-.3.94-.45,1.4s-.28.86-.4,1.19h2.41c.17-.52.32-.95.43-1.3s.26-.78.41-1.29Z"/>
      <path class="st2" d="M124.5,845.38c-.1,0-.77,0-2.02,0-1.25,0-2.17,0-2.76,0-.85,0-1.86,0-3.05,0-1.19,0-1.81,0-1.87,0l-.41-1.2c.6-.29,1.3-.67,2.1-1.11s1.42-.85,1.88-1.2c.71-.54,1.25-1.06,1.62-1.55.37-.49.55-1.07.55-1.75,0-.52-.12-.97-.35-1.33-.23-.36-.56-.65-.98-.87-.39-.19-.83-.33-1.33-.41-.5-.08-1.03-.12-1.58-.12-.19,0-.41,0-.66.02-.25,0-.46.02-.64.03l.15-1.43c.12,0,.3-.02.54-.03.24,0,.5-.02.77-.02.78,0,1.47.06,2.08.17.61.11,1.17.29,1.7.54.66.32,1.17.75,1.54,1.3s.55,1.21.55,1.97c0,.65-.15,1.24-.44,1.8-.29.55-.66,1.04-1.1,1.46-.45.44-1,.88-1.65,1.3s-1.29.79-1.92,1.1l.02.06c.31-.03.69-.06,1.15-.08.46-.02.91-.04,1.36-.05.9-.01,1.89-.03,2.98-.04,1.08,0,1.67-.02,1.77-.02v1.46Z"/>
      <path class="st2" d="M136.79,844.08c0,.06-.03.25-.06.54-.03.3-.06.62-.09.97h-.38c-1.75,0-3.3-.22-4.66-.66-1.36-.44-2.48-1.08-3.35-1.92-.61-.58-1.09-1.27-1.45-2.08s-.53-1.73-.53-2.77c0-.93.17-1.78.53-2.55.35-.77.81-1.44,1.38-2.01.82-.83,1.93-1.49,3.32-1.98,1.39-.49,2.88-.73,4.46-.73h.48c0,.13.02.33.04.62.02.28.05.59.08.92h-.37c-.9,0-1.83.1-2.79.29-.96.2-1.79.49-2.49.89-.9.52-1.6,1.18-2.09,1.98-.49.8-.73,1.67-.73,2.6s.22,1.85.66,2.64c.44.79,1.13,1.46,2.08,1.99.77.44,1.64.77,2.6.97s1.91.3,2.86.3h.2c.09,0,.19,0,.3-.01Z"/>
      <path class="st2" d="M148.46,845.38c-.1,0-.77,0-2.02,0-1.25,0-2.17,0-2.76,0-.85,0-1.86,0-3.05,0-1.19,0-1.81,0-1.87,0l-.41-1.2c.6-.29,1.3-.67,2.1-1.11s1.42-.85,1.88-1.2c.71-.54,1.25-1.06,1.62-1.55.37-.49.55-1.07.55-1.75,0-.52-.12-.97-.35-1.33-.23-.36-.56-.65-.98-.87-.39-.19-.83-.33-1.33-.41-.5-.08-1.03-.12-1.58-.12-.19,0-.41,0-.66.02-.25,0-.46.02-.64.03l.15-1.43c.12,0,.3-.02.54-.03.24,0,.5-.02.77-.02.78,0,1.47.06,2.08.17.61.11,1.17.29,1.7.54.66.32,1.17.75,1.54,1.3s.55,1.21.55,1.97c0,.65-.15,1.24-.44,1.8-.29.55-.66,1.04-1.1,1.46-.45.44-1,.88-1.65,1.3s-1.29.79-1.92,1.1l.02.06c.31-.03.69-.06,1.15-.08.46-.02.91-.04,1.36-.05.9-.01,1.89-.03,2.98-.04,1.08,0,1.67-.02,1.77-.02v1.46Z"/>
      <path class="st2" d="M160.76,844.08c0,.06-.03.25-.06.54-.03.3-.06.62-.09.97h-.38c-1.75,0-3.3-.22-4.66-.66-1.36-.44-2.48-1.08-3.35-1.92-.61-.58-1.09-1.27-1.45-2.08s-.53-1.73-.53-2.77c0-.93.17-1.78.53-2.55.35-.77.81-1.44,1.38-2.01.82-.83,1.93-1.49,3.32-1.98,1.39-.49,2.88-.73,4.46-.73h.48c0,.13.02.33.04.62.02.28.05.59.08.92h-.37c-.9,0-1.83.1-2.79.29-.96.2-1.79.49-2.49.89-.9.52-1.6,1.18-2.09,1.98-.49.8-.73,1.67-.73,2.6s.22,1.85.66,2.64c.44.79,1.13,1.46,2.08,1.99.77.44,1.64.77,2.6.97s1.91.3,2.86.3h.2c.09,0,.19,0,.3-.01Z"/>
      <path class="st2" d="M172.43,845.38c-.1,0-.77,0-2.02,0-1.25,0-2.17,0-2.76,0-.85,0-1.86,0-3.05,0-1.19,0-1.81,0-1.87,0l-.41-1.2c.6-.29,1.3-.67,2.1-1.11s1.42-.85,1.88-1.2c.71-.54,1.25-1.06,1.62-1.55.37-.49.55-1.07.55-1.75,0-.52-.12-.97-.35-1.33-.23-.36-.56-.65-.98-.87-.39-.19-.83-.33-1.33-.41-.5-.08-1.03-.12-1.58-.12-.19,0-.41,0-.66.02-.25,0-.46.02-.64.03l.15-1.43c.12,0,.3-.02.54-.03.24,0,.5-.02.77-.02.78,0,1.47.06,2.08.17.61.11,1.17.29,1.7.54.66.32,1.17.75,1.54,1.3s.55,1.21.55,1.97c0,.65-.15,1.24-.44,1.8-.29.55-.66,1.04-1.1,1.46-.45.44-1,.88-1.65,1.3s-1.29.79-1.92,1.1l.02.06c.31-.03.69-.06,1.15-.08.46-.02.91-.04,1.36-.05.9-.01,1.89-.03,2.98-.04,1.08,0,1.67-.02,1.77-.02v1.46Z"/>
      <path class="st2" d="M184.73,844.08c0,.06-.03.25-.06.54-.03.3-.06.62-.09.97h-.38c-1.75,0-3.3-.22-4.66-.66-1.36-.44-2.48-1.08-3.35-1.92-.61-.58-1.09-1.27-1.45-2.08s-.53-1.73-.53-2.77c0-.93.17-1.78.53-2.55.35-.77.81-1.44,1.38-2.01.82-.83,1.93-1.49,3.32-1.98,1.39-.49,2.88-.73,4.46-.73h.48c0,.13.02.33.04.62.02.28.05.59.08.92h-.37c-.9,0-1.83.1-2.79.29-.96.2-1.79.49-2.49.89-.9.52-1.6,1.18-2.09,1.98-.49.8-.73,1.67-.73,2.6s.22,1.85.66,2.64c.44.79,1.13,1.46,2.08,1.99.77.44,1.64.77,2.6.97s1.91.3,2.86.3h.2c.09,0,.19,0,.3-.01Z"/>
    </g>
  </g>
</svg>