<?xml version="1.0" encoding="UTF-8"?>
<svg id="Layer_1" xmlns="http://www.w3.org/2000/svg" version="1.1" viewBox="0 0 900 900">
  <!-- Generator: Adobe Illustrator 29.1.0, SVG Export Plug-In . SVG Version: 2.1.0 Build 142)  -->
  <defs>
    <style>
      .st0 {
        fill: #9fa8c6;
      }

      .st1 {
        fill: #231f20;
      }

      .st2 {
        fill: #ff9a00;
      }

      .st3 {
        opacity: .9;
      }

      .st4 {
        fill: #300;
      }
    </style>
  </defs>
  <g>
    <path class="st1" d="M482.6,469.2c-1,24.7-10.2,45.2-27.8,61.2,10.6,8.6,22.8,15.2,36.2,19.8,6.1,2.1,12.6,3.7,19.3,5,23.4-22.8,35.1-51.5,35.1-86h-62.9,0Z"/>
    <path class="st1" d="M403.6,562.8l-7.3,34.3h-54.9v-34.7c-37.6-3.3-68.4-19.3-92.2-47.8-24.3-29.4-36.4-64.9-36.4-106.6s11.9-78.7,35.6-108.5c27-33.2,63.2-49.8,108.4-49.8s25.5,1.3,37.3,3.9c6.6-5.8,13.9-11.3,21.8-16.4,9.1-5.9,18.6-11,28.5-15.4-26.4-10.3-55.6-15.5-87.6-15.5-62.3,0-112.5,18.3-150.6,54.9-37.5,37-56.3,85.9-56.3,146.8s18.8,108,56.3,144.2c38.1,36.2,88.2,54.2,150.6,54.2s65.6-4.7,92.1-14.2c-17.7-7.8-32.9-17.6-45.3-29.4h0Z"/>
    <path class="st1" d="M464.1,277.7c-3.2,2.1-6.1,4.2-9,6.5,16.1,14.5,25.3,31.6,27.5,51h62.9c-3.5-29.1-16.9-54.5-40.2-75.9-14.8,3.8-28.6,10-41.2,18.4h0Z"/>
  </g>
  <path class="st0" d="M750,407.9c0-60.8-18.7-109.7-56.2-146.7-38-36.6-88.2-54.8-150.8-54.8s-87.7,11.5-123.5,34.4c-35.8,23.4-56.9,58.2-64.9,94.3h60.1c5.4-24.6,20.3-45,44.9-61.2,24.1-16.1,51.9-24.2,83.4-24.2s79.7,14.5,105.9,43.4c26.7,28.5,40.1,66.8,40.1,114.8s-13.4,84.4-40.1,112.9c-26.2,28.1-61.5,42.1-105.9,42.1s-73.3-11-97.9-33.2c-24.6-21.7-36.9-50.8-36.9-87.4h134.8v-47.8h-195.7v197.7h43.3l8.8-41.5c15.5,17.9,36.4,31.7,62.6,41.5,25.1,9.4,52.1,14,81,14,62.6,0,112.8-18.1,150.8-54.2,37.4-36.1,56.2-84.2,56.2-144.1h0Z"/>
  <g>
    <path class="st1" d="M227.9,671.7c0-6.8,2.7-12.2,8.1-16.3,5.5-4.1,12.8-6.1,21.8-6.1s13.3,1.3,18.5,4c5.3,2.7,8.2,6.2,8.9,10.3h-9.1c-.4-2.7-2.4-5-5.9-6.8s-7.6-2.7-12.4-2.7-11.8,1.8-15.7,5.5c-3.4,3.3-5.2,7.3-5.2,12s1.8,8.6,5.3,11.8c3.9,3.6,9.1,5.4,15.6,5.4s9.7-.9,13-2.8c3.4-1.9,5.1-4.4,5.3-7.6h9.1c0,4.6-2.5,8.3-7.4,11-5,2.8-11.7,4.2-19.9,4.2s-16.3-2-21.8-6c-5.4-4-8.1-9.3-8.1-16h0Z"/>
    <path class="st1" d="M304.9,677c0-5,2.2-9.1,6.7-12.1s10.4-4.5,17.8-4.5,13.4,1.5,18,4.5c4.5,3,6.7,7,6.7,12.1s-2.2,9.1-6.7,12.1-10.5,4.5-18,4.5-13.4-1.5-17.8-4.5-6.7-7-6.7-12.1h0ZM313,677c0,3.7,1.5,6.7,4.4,9,3,2.3,7,3.4,12,3.4s9-1.1,12-3.4c3-2.3,4.4-5.2,4.4-9s-1.5-6.7-4.4-8.9c-3-2.3-7-3.4-12-3.4s-9,1.1-12,3.4c-3,2.2-4.4,5.2-4.4,8.9Z"/>
    <path class="st1" d="M378.1,655v-4.8h8.1v4.8h-8.1ZM378.1,693.2v-32.3h8.1v32.3h-8.1Z"/>
    <path class="st1" d="M413.1,693.2v-31.2h8.1v3.3c1.4-1.5,3.5-2.6,6.3-3.3,2.6-.7,5.5-1,8.7-1,5.7,0,10.5,1.2,14.5,3.7,4,2.4,6,5.3,6,8.7v19.9h-8.1v-19.9c0-2.2-1.3-4-4-5.5s-5.8-2.3-9.6-2.3-7,.8-9.7,2.3-4.1,3.3-4.1,5.5v19.9h-8.2.1Z"/>
    <path class="st1" d="M479.3,671.7c0-6.8,2.8-12.2,8.4-16.3,5.7-4.1,13.2-6.1,22.5-6.1s13.1,1.3,18.5,3.8c5.4,2.6,8.6,5.9,9.8,9.9l-9.1.6c-.8-2.7-3-5-6.7-6.8-3.6-1.8-7.8-2.7-12.5-2.7s-11.9,1.6-15.8,4.8c-4,3.2-6,7.4-6,12.7s2,9.4,6,12.5c3.9,3.1,9.2,4.7,15.8,4.7s10.9-1.2,14.6-3.7c3.7-2.4,5.5-5.6,5.5-9.7h-20.1v-5.3h29.3v22h-6.5l-1.3-4.6c-2.3,2-5.4,3.5-9.4,4.6-3.8,1-7.8,1.6-12.1,1.6-9.4,0-16.9-2-22.5-6s-8.4-9.3-8.4-16h0Z"/>
    <path class="st1" d="M561.1,677c0-5,2.1-9.1,6.2-12.1,4.2-3,9.7-4.5,16.5-4.5s12.4,1.5,16.5,4.5c4.2,3,6.2,7,6.2,12.1v1.6h-37.4c0,3.2,1.3,5.8,4,7.7,2.7,2,6.3,3,10.7,3s7-.6,9.5-1.8,3.9-2.7,4.2-4.6h8.2c-.5,3.3-2.7,5.8-6.7,7.8-3.9,1.9-9,2.9-15.1,2.9s-12.4-1.5-16.5-4.5c-4.2-3-6.2-7-6.2-12.1h-.1ZM569.2,674.4h29.1c-.4-2.9-1.9-5.3-4.6-7s-6-2.6-10-2.6-7.3.9-10,2.6c-2.7,1.8-4.3,4.1-4.7,7h.2Z"/>
    <path class="st1" d="M630,693.2v-31.2h8.2v3.3c1.4-1.5,3.5-2.6,6.3-3.3,2.6-.7,5.5-1,8.7-1,5.7,0,10.5,1.2,14.5,3.7,4,2.4,6,5.3,6,8.7v19.9h-8.2v-19.9c0-2.2-1.3-4-4-5.5s-5.8-2.3-9.6-2.3-7,.8-9.7,2.3-4.1,3.3-4.1,5.5v19.9h-8.2,0Z"/>
  </g>
  <g class="st3">
    <path class="st4" d="M64.5,831h29.1c4.4,0,8,3.6,8,8v27.9c0,4.4-3.6,8-8,8h-29.1c-4.4,0-8-3.6-8-8v-27.9c0-4.4,3.6-8,8-8Z"/>
    <g>
      <path class="st2" d="M78.3,857.4h-7l-1.4,4.4c0,.2-.2.3-.4.3h-3.5c-.2,0-.3,0-.2-.3l6-17.4c0-.2,0-.4.2-.6,0-.4,0-.8,0-1.2,0,0,0-.2.2-.2h4.9q.2,0,.2.2l6.8,19.3c0,.2,0,.3-.2.3h-3.9c0,0-.3,0-.3-.2l-1.5-4.5h0ZM72.4,853.5h4.8c0-.4-.3-.9-.4-1.3-.2-.5-.3-1.1-.5-1.6-.2-.6-.4-1.1-.5-1.7s-.4-1.1-.5-1.7c-.2-.5-.3-1-.4-1.5h0c-.2.8-.4,1.6-.6,2.4-.3.9-.6,1.8-.9,2.8-.3,1-.5,1.8-.8,2.6h-.2Z"/>
      <path class="st2" d="M88.3,845.5c-.6,0-1.2-.2-1.7-.7-.4-.5-.7-1.1-.6-1.7,0-.6.2-1.2.7-1.7s1.1-.7,1.7-.7,1.3.2,1.7.7c.4.4.6,1.1.6,1.7s-.2,1.3-.7,1.7c-.4.4-1.1.7-1.7.7h0ZM86.2,861.8v-14.4c0-.2,0-.3.2-.3h3.7q.2,0,.2.3v14.4c0,.2,0,.3-.2.3h-3.7c-.2,0-.3,0-.3-.3h0Z"/>
    </g>
  </g>
</svg>