<?xml version="1.0" encoding="UTF-8"?>
<svg id="Layer_1" xmlns="http://www.w3.org/2000/svg" xmlns:xlink="http://www.w3.org/1999/xlink" version="1.1" viewBox="0 0 900 900">
  <!-- Generator: Adobe Illustrator 29.1.0, SVG Export Plug-In . SVG Version: 2.1.0 Build 142)  -->
  <defs>
    <style>
      .st0 {
        fill: #9fa8c6;
      }

      .st1 {
        fill: #231f20;
      }

      .st2 {
        fill: #2c2c2c;
      }

      .st3 {
        fill: url(#linear-gradient);
      }
    </style>
    <linearGradient id="linear-gradient" x1="158.95" y1="751.75" x2="758.8" y2="133.95" gradientTransform="translate(0 902) scale(1 -1)" gradientUnits="userSpaceOnUse">
      <stop offset="0" stop-color="#fff" stop-opacity="0"/>
      <stop offset="0" stop-color="#fbfbfb" stop-opacity=".02"/>
      <stop offset=".63" stop-color="#2c2c2c"/>
    </linearGradient>
  </defs>
  <g id="Layer_2">
    <path class="st0" d="M369.38,899.34h484.64s45.47-.01,45.47-.01V360.26c-56.4,266.8-264.5,477.83-530.11,539.09h0Z"/>
  </g>
  <path class="st3" d="M900,361.99V0h-114.49c3.96,29.91,6.01,60.42,6.01,91.41,0,381.32-309.12,690.44-690.44,690.44-34.34,0-68.09-2.52-101.09-7.36v125.52h367.45c267.87-56.92,478.29-269.17,532.55-538.01h.01Z"/>
  <g>
    <path class="st1" d="M390.87,339.29c-.83,21.24-8.78,38.75-23.87,52.56,9.13,7.38,19.56,13.08,31.1,16.99,5.24,1.77,10.78,3.2,16.58,4.28,20.1-19.61,30.16-44.22,30.16-73.83h-53.98,0Z"/>
    <path class="st1" d="M323.09,419.63l-6.26,29.41h-47.08v-29.82c-32.29-2.87-58.69-16.54-79.17-41.05-20.84-25.2-31.25-55.68-31.25-91.47s10.17-67.55,30.54-93.12c23.19-28.48,54.21-42.73,93.04-42.73,11.24,0,21.91,1.13,32.01,3.38,5.68-4.98,11.91-9.69,18.69-14.12,7.85-5.03,16.01-9.44,24.48-13.23-22.64-8.85-47.7-13.27-75.17-13.27-53.51,0-96.59,15.71-129.27,47.1-32.2,31.77-48.3,73.76-48.3,125.98s16.09,92.76,48.3,123.79c32.67,31.04,75.75,46.56,129.27,46.56,29.93,0,56.29-4.06,79.09-12.18-15.18-6.68-28.21-15.13-38.91-25.24Z"/>
    <path class="st1" d="M374.97,174.88c-2.72,1.78-5.28,3.64-7.72,5.56,13.83,12.49,21.71,27.09,23.62,43.82h53.98c-2.99-25.02-14.49-46.75-34.5-65.2-12.73,3.27-24.54,8.54-35.33,15.79l-.04.03h0Z"/>
  </g>
  <path class="st0" d="M620.4,286.7c0-52.19-16.06-94.16-48.2-125.91-32.59-31.38-75.74-47.08-129.45-47.08-39.93,0-75.28,9.85-106.04,29.56-30.75,20.08-48.85,49.97-55.74,80.99l51.61.03c4.59-21.16,17.45-38.68,38.56-52.55,20.65-13.86,44.53-20.8,71.61-20.8,38.11,0,68.4,12.41,90.89,37.23,22.96,24.46,34.43,57.3,34.43,98.54s-11.47,72.45-34.43,96.9c-22.49,24.09-52.78,36.13-90.89,36.13-34.88,0-62.88-9.49-84.01-28.47-21.11-18.61-31.67-43.61-31.67-75h115.68v-41.06h-168.01v169.71h37.19l7.57-35.58c13.32,15.33,31.22,27.19,53.71,35.58,21.58,8.03,44.76,12.04,69.54,12.04,53.71,0,96.86-15.51,129.45-46.53,32.14-31.02,48.2-72.26,48.2-123.72h0Z"/>
  <g>
    <path class="st1" d="M172.23,513.09c0-5.79,2.33-10.45,7-13.98,4.73-3.48,10.98-5.23,18.74-5.23,6.11,0,11.39,1.16,15.85,3.46,4.53,2.35,7.07,5.29,7.62,8.81h-7.83c-.34-2.31-2.03-4.26-5.04-5.83-3.02-1.54-6.55-2.31-10.6-2.31-5.63,0-10.13,1.58-13.49,4.74-2.95,2.84-4.43,6.28-4.43,10.33s1.51,7.35,4.53,10.15c3.36,3.08,7.83,4.62,13.39,4.62,4.6,0,8.3-.81,11.12-2.43,2.88-1.62,4.39-3.79,4.53-6.5h7.83c0,3.97-2.13,7.13-6.39,9.48-4.33,2.39-10.02,3.59-17.09,3.59-7.76,0-14-1.72-18.74-5.16-4.67-3.44-7-8.02-7-13.73h0Z"/>
    <path class="st1" d="M238.3,517.71c0-4.33,1.92-7.8,5.75-10.39,3.83-2.59,8.94-3.89,15.31-3.89s11.5,1.3,15.41,3.89c3.83,2.59,5.75,6.06,5.75,10.39s-1.92,7.8-5.75,10.39c-3.9,2.59-9.04,3.89-15.41,3.89s-11.47-1.3-15.31-3.89c-3.83-2.59-5.75-6.06-5.75-10.39h0ZM245.3,517.68c0,3.19,1.27,5.76,3.81,7.69,2.61,1.94,6.04,2.91,10.29,2.91s7.69-.97,10.29-2.91c2.54-1.94,3.81-4.5,3.81-7.69s-1.27-5.74-3.81-7.64c-2.61-1.94-6.04-2.91-10.29-2.91s-7.69.97-10.29,2.91c-2.54,1.9-3.81,4.45-3.81,7.64Z"/>
    <path class="st1" d="M301.18,498.75v-4.13h7v4.13h-7ZM301.18,531.57v-27.71h7v27.71h-7Z"/>
    <path class="st1" d="M331.22,531.57v-26.8h7l-.02,2.79c1.23-1.25,3.05-2.21,5.44-2.86,2.26-.57,4.76-.85,7.5-.85,4.86,0,9,1.05,12.42,3.16,3.42,2.07,5.13,4.56,5.13,7.48v17.08h-7v-17.08c0-1.86-1.13-3.44-3.4-4.74-2.27-1.3-5.01-1.94-8.24-1.94s-6.01.65-8.34,1.94c-2.34,1.3-3.5,2.88-3.5,4.74v17.08h-7,0Z"/>
    <path class="st1" d="M388.02,513.09c0-5.79,2.4-10.45,7.21-13.98,4.87-3.48,11.33-5.23,19.35-5.23,5.97,0,11.26,1.09,15.85,3.28,4.6,2.23,7.41,5.06,8.44,8.51l-7.83.49c-.69-2.35-2.61-4.29-5.77-5.83-3.09-1.54-6.66-2.31-10.71-2.31-5.7,0-10.23,1.38-13.59,4.13-3.43,2.72-5.15,6.36-5.15,10.94s1.71,8.04,5.15,10.76c3.36,2.67,7.89,4.01,13.59,4.01,5.22,0,9.4-1.05,12.56-3.16,3.16-2.07,4.73-4.84,4.73-8.33h-17.3v-4.56h25.12v18.84h-5.56l-1.13-3.95c-1.99,1.7-4.67,3.02-8.03,3.95-3.23.89-6.69,1.34-10.4,1.34-8.03,0-14.48-1.72-19.35-5.16-4.8-3.44-7.21-8.02-7.21-13.73h0Z"/>
    <path class="st1" d="M458.21,517.71c0-4.33,1.78-7.8,5.35-10.39,3.57-2.59,8.3-3.89,14.21-3.89s10.64,1.3,14.21,3.89c3.57,2.59,5.35,6.06,5.35,10.39v1.4h-32.12c0,2.78,1.13,4.99,3.4,6.64,2.33,1.69,5.39,2.53,9.16,2.53,3.29,0,6.01-.5,8.14-1.5,2.13-1,3.33-2.32,3.6-3.97h7c-.41,2.79-2.34,5.02-5.77,6.68-3.36,1.66-7.69,2.49-12.97,2.49-5.9,0-10.64-1.3-14.21-3.89-3.57-2.59-5.35-6.06-5.35-10.39h0ZM465.22,515.4h25.02c-.34-2.51-1.65-4.52-3.91-6.02-2.27-1.5-5.11-2.25-8.54-2.25s-6.28.75-8.54,2.25c-2.34,1.5-3.67,3.5-4.02,6.02Z"/>
    <path class="st1" d="M517.39,531.57v-26.8h7l-.02,2.79c1.23-1.25,3.05-2.21,5.44-2.86,2.26-.57,4.76-.85,7.5-.85,4.86,0,9,1.05,12.42,3.16,3.42,2.07,5.13,4.56,5.13,7.48v17.08h-7v-17.08c0-1.86-1.13-3.44-3.4-4.74-2.27-1.3-5.01-1.94-8.24-1.94s-6.01.65-8.34,1.94c-2.34,1.3-3.5,2.88-3.5,4.74v17.08h-7Z"/>
  </g>
  <g>
    <path d="M11.02,752.67v-15.86h10.9v1.88h-8.92v4.85h7.93v1.88h-7.93v7.25h-1.98Z"/>
    <path d="M22.84,746.72c0-1.86.49-3.35,1.46-4.46.97-1.11,2.26-1.67,3.88-1.67s2.92.56,3.9,1.67c.97,1.11,1.46,2.6,1.46,4.46s-.49,3.35-1.46,4.46c-.99,1.11-2.29,1.67-3.9,1.67s-2.91-.56-3.88-1.67c-.97-1.11-1.46-2.6-1.46-4.46ZM24.61,746.71c0,1.37.32,2.47.97,3.3.66.83,1.53,1.25,2.61,1.25s1.95-.42,2.61-1.25c.64-.83.97-1.93.97-3.3s-.32-2.46-.97-3.28c-.66-.83-1.53-1.25-2.61-1.25s-1.95.42-2.61,1.25c-.64.82-.97,1.91-.97,3.28Z"/>
    <path d="M35.6,752.67v-11.5h1.77v1.2c.31-.54.77-.95,1.37-1.23.57-.24,1.21-.37,1.9-.37,1.23,0,2.28.45,3.15,1.36.87.89,1.3,1.96,1.3,3.21v7.33h-1.77v-7.33c0-.8-.29-1.48-.86-2.04-.57-.56-1.27-.83-2.09-.83s-1.52.28-2.11.83-.89,1.24-.89,2.04v7.33h-1.77Z"/>
    <path d="M47.99,740.98v-3.39h1.77v3.39h1.8v1.59h-1.8v7.54c0,.21.08.39.23.55.16.16.34.24.55.24h1.02v1.77h-1.59c-.54,0-1.01-.19-1.41-.57-.38-.4-.57-.87-.57-1.41v-8.11h-1.59v-1.59h1.59Z"/>
    <path d="M53.31,745.05v-2.09h2.09v2.09h-2.09ZM53.31,752.67v-2.09h2.09v2.09h-2.09Z"/>
    <path d="M63.98,747.32h1.98c0,1.2.37,2.16,1.1,2.87.71.73,1.67,1.1,2.87,1.1s2.16-.27,2.87-.81c.73-.54,1.1-1.26,1.1-2.17,0-.82-.43-1.47-1.28-1.96-.63-.35-1.52-.63-2.69-.83-1.55-.28-2.83-.79-3.83-1.54-1.15-.87-1.72-1.94-1.72-3.21s.5-2.32,1.51-3.1,2.36-1.17,4.04-1.17,3.03.46,4.04,1.38,1.51,2.15,1.51,3.68h-1.98c-.17-.99-.58-1.79-1.23-2.4-.66-.59-1.44-.89-2.35-.89-1.08,0-1.95.23-2.61.68-.64.45-.97,1.06-.97,1.83s.37,1.47,1.12,2.01c.63.47,1.44.79,2.45.96,1.72.3,3.07.75,4.04,1.36,1.27.77,1.9,1.77,1.9,3.03,0,1.5-.54,2.69-1.62,3.57-1.1.9-2.54,1.36-4.33,1.36s-3.23-.52-4.33-1.57c-1.08-1.04-1.62-2.43-1.62-4.17Z"/>
    <path d="M77.7,752.67v-15.86h1.77v5.53c.42-.48.9-.86,1.44-1.13.56-.29,1.14-.44,1.75-.44,1.1,0,2.03.39,2.79,1.17.78.77,1.17,1.7,1.17,2.79v7.93h-1.77v-7.95c0-.61-.24-1.13-.73-1.57-.47-.4-1.03-.6-1.67-.6-.78,0-1.7.65-2.77,1.94l-.21.24v7.95h-1.77Z"/>
    <path d="M89.13,752.67v-11.69h1.77v2.06c.26-.71.73-1.27,1.41-1.67.64-.4,1.37-.6,2.17-.6h.78v1.77h-.78c-1.01,0-1.86.4-2.56,1.2-.68.77-1.02,1.69-1.02,2.77v6.15h-1.77Z"/>
    <path d="M96.17,746.72c0-1.86.45-3.35,1.36-4.46.9-1.11,2.1-1.67,3.6-1.67s2.7.56,3.6,1.67c.9,1.11,1.36,2.6,1.36,4.46v.6h-8.14c0,1.19.29,2.14.86,2.85.59.73,1.37,1.09,2.32,1.09.83,0,1.52-.21,2.06-.64.54-.43.84-1,.91-1.7h1.77c-.1,1.2-.59,2.16-1.46,2.87-.85.71-1.95,1.07-3.29,1.07-1.5,0-2.7-.56-3.6-1.67-.9-1.11-1.36-2.6-1.36-4.46ZM97.94,745.73h6.34c-.09-1.08-.42-1.94-.99-2.58-.57-.64-1.3-.97-2.17-.97s-1.59.32-2.17.97c-.59.64-.93,1.5-1.02,2.58Z"/>
    <path d="M107.41,746.72c0-1.86.45-3.35,1.36-4.46.9-1.11,2.1-1.67,3.6-1.67s2.7.56,3.6,1.67c.9,1.11,1.36,2.6,1.36,4.46v.6h-8.14c0,1.19.29,2.14.86,2.85.59.73,1.37,1.09,2.32,1.09.83,0,1.52-.21,2.06-.64.54-.43.84-1,.91-1.7h1.77c-.1,1.2-.59,2.16-1.46,2.87-.85.71-1.95,1.07-3.29,1.07-1.5,0-2.7-.56-3.6-1.67-.9-1.11-1.36-2.6-1.36-4.46ZM109.19,745.73h6.34c-.09-1.08-.42-1.94-.99-2.58-.57-.64-1.3-.97-2.17-.97s-1.59.32-2.17.97c-.59.64-.93,1.5-1.02,2.58Z"/>
    <path d="M126.07,752.67v-15.86h4.96c2.16,0,3.88.72,5.17,2.17,1.3,1.44,1.96,3.37,1.96,5.76s-.65,4.32-1.96,5.77c-1.29,1.44-3.01,2.17-5.17,2.17h-4.96ZM128.05,750.89h2.97c1.55,0,2.79-.56,3.73-1.67.94-1.13,1.41-2.63,1.41-4.5s-.47-3.36-1.41-4.47-2.18-1.67-3.73-1.67h-2.97v12.31Z"/>
    <path d="M139.47,746.72c0-1.86.45-3.35,1.36-4.46.9-1.11,2.1-1.67,3.6-1.67s2.7.56,3.6,1.67c.9,1.11,1.36,2.6,1.36,4.46v.6h-8.14c0,1.19.29,2.14.86,2.85.59.73,1.37,1.09,2.32,1.09.83,0,1.52-.21,2.06-.64.54-.43.84-1,.91-1.7h1.77c-.1,1.2-.59,2.16-1.46,2.87-.85.71-1.95,1.07-3.29,1.07-1.5,0-2.7-.56-3.6-1.67-.9-1.11-1.36-2.6-1.36-4.46ZM141.25,745.73h6.34c-.09-1.08-.42-1.94-.99-2.58-.57-.64-1.3-.97-2.17-.97s-1.59.32-2.17.97c-.59.64-.93,1.5-1.02,2.58Z"/>
    <path d="M150.22,740.98h1.77l3.16,9.31,3.18-9.31h1.8l-3.97,11.69h-1.98l-3.97-11.69Z"/>
    <path d="M160.94,749.48c0-1.01.46-1.84,1.38-2.5.83-.59,1.86-.94,3.08-1.04.85-.07,1.5-.2,1.93-.39.61-.24.91-.64.91-1.2,0-.61-.23-1.12-.7-1.54-.47-.42-1.03-.63-1.67-.63-.68,0-1.27.2-1.77.6-.52.42-.78.94-.78,1.57v.39h-1.8v-.78c0-1.01.45-1.83,1.36-2.48.83-.59,1.83-.89,2.99-.89s2.07.3,2.89.91c.85.64,1.27,1.46,1.27,2.45v5.95c0,.33.12.61.37.83.23.23.5.34.83.34v1.59h-.7c-.47,0-.89-.12-1.27-.37-.38-.26-.64-.6-.8-1.02-.37.54-.88.94-1.54,1.2-.61.24-1.28.37-2.01.37-1.2,0-2.16-.3-2.87-.91-.73-.61-1.1-1.43-1.1-2.45ZM162.72,749.48c0,.5.23.92.68,1.25.42.3.92.44,1.51.44.9,0,1.68-.27,2.32-.81.68-.54,1.02-1.23,1.02-2.06l-.02-1.59c-.48.4-1.37.65-2.65.76l-.49.03c-.64.05-1.19.25-1.64.6-.48.37-.73.83-.73,1.38Z"/>
    <path d="M172.89,752.67v-11.5h1.77v1.2c.31-.54.77-.95,1.37-1.23.57-.24,1.21-.37,1.9-.37,1.23,0,2.28.45,3.15,1.36.87.89,1.3,1.96,1.3,3.21v7.33h-1.77v-7.33c0-.8-.29-1.48-.86-2.04-.57-.56-1.27-.83-2.09-.83s-1.52.28-2.11.83-.89,1.24-.89,2.04v7.33h-1.77Z"/>
    <path d="M184.16,746.72c0-1.6.45-2.97,1.36-4.12.94-1.22,2.13-1.83,3.57-1.83.68,0,1.29.13,1.83.38.61.27,1.06.67,1.36,1.18v-1.2h1.77v11.53c0,1.18-.51,2.15-1.53,2.9-.95.71-2.1,1.07-3.43,1.07-1.21,0-2.26-.29-3.15-.86-.97-.64-1.5-1.49-1.59-2.53h1.8c.1.59.46,1.05,1.07,1.38.52.28,1.15.42,1.88.42.85,0,1.58-.21,2.19-.63.66-.44.99-1.02.99-1.75l-.02-1.59c-.3.52-.75.92-1.35,1.2-.54.26-1.15.39-1.82.39-1.44,0-2.63-.61-3.56-1.83-.9-1.15-1.35-2.52-1.35-4.12ZM185.93,746.71c0,1.17.27,2.17.81,3.01.59.91,1.37,1.36,2.35,1.36s1.77-.45,2.37-1.36c.54-.84.81-1.84.81-3.01s-.27-2.16-.81-2.98c-.61-.91-1.4-1.36-2.37-1.36s-1.76.45-2.35,1.36c-.54.82-.81,1.81-.81,2.98Z"/>
    <path d="M195.98,749.48c0-1.01.46-1.84,1.38-2.5.83-.59,1.86-.94,3.08-1.04.85-.07,1.5-.2,1.93-.39.61-.24.91-.64.91-1.2,0-.61-.23-1.12-.7-1.54-.47-.42-1.03-.63-1.67-.63-.68,0-1.27.2-1.77.6-.52.42-.78.94-.78,1.57v.39h-1.8v-.78c0-1.01.45-1.83,1.36-2.48.83-.59,1.83-.89,2.99-.89s2.07.3,2.89.91c.85.64,1.27,1.46,1.27,2.45v5.95c0,.33.12.61.37.83.23.23.5.34.83.34v1.59h-.7c-.47,0-.89-.12-1.27-.37-.38-.26-.64-.6-.8-1.02-.37.54-.88.94-1.54,1.2-.61.24-1.28.37-2.01.37-1.2,0-2.16-.3-2.87-.91-.73-.61-1.1-1.43-1.1-2.45ZM197.75,749.48c0,.5.23.92.68,1.25.42.3.92.44,1.51.44.9,0,1.68-.27,2.32-.81.68-.54,1.02-1.23,1.02-2.06l-.02-1.59c-.48.4-1.37.65-2.65.76l-.49.03c-.64.05-1.19.25-1.64.6-.48.37-.73.83-.73,1.38Z"/>
    <path d="M207.95,752.67v-11.69h1.77v2.06c.26-.71.73-1.27,1.41-1.67.64-.4,1.37-.6,2.17-.6h.78v1.77h-.78c-1.01,0-1.86.4-2.56,1.2-.68.77-1.02,1.69-1.02,2.77v6.15h-1.77Z"/>
    <path d="M215.62,738.58v-1.77h1.77v1.77h-1.77ZM215.62,752.67v-11.9h1.77v11.9h-1.77Z"/>
    <path d="M225.85,738.68v-1.77h11.9v1.77c-2.07,1.44-3.61,3.48-4.62,6.1-.89,2.31-1.33,4.94-1.33,7.88h-2.19c0-2.8.45-5.37,1.36-7.72,1.01-2.54,2.48-4.63,4.41-6.26h-9.52Z"/>
    <path d="M241.45,741.37v-1.38c1.17,0,2.17-.27,3.03-.81.92-.59,1.43-1.38,1.51-2.37h1.2v15.86h-1.77v-11.3h-3.97Z"/>
    <path d="M251.25,748.7v-1.77l7.15-10.12h1.77v10.12h2.19v1.77h-2.19v3.96h-1.77v-3.96h-7.15ZM253.42,746.93h4.98v-6.94l-4.98,6.94Z"/>
  </g>
  <g>
    <path class="st2" d="M717.54,835.53v-1.7h3.63l.94-2.9h1.7l-.94,2.9h3.29l.94-2.9h1.67l-.94,2.9h2.66v1.7h-3.18l-1.07,3.29h3v1.67h-3.55l-1.1,3.39h-1.67l1.07-3.39h-3.26l-1.1,3.39h-1.7l1.1-3.39h-2.74v-1.67h3.29l1.04-3.29h-3.08ZM725.6,835.53h-3.29l-1.07,3.29h3.29l1.07-3.29Z"/>
    <path class="st2" d="M732.62,833.18c0-1.48.52-2.74,1.57-3.78,1.06-1.04,2.33-1.57,3.81-1.57,1.58,0,2.91.62,3.99,1.85,1.04,1.18,1.57,2.61,1.57,4.28v1.98c0,2.45-.53,4.42-1.59,5.9-1.08,1.48-2.5,2.22-4.28,2.22-1.34,0-2.5-.43-3.47-1.28-.99-.89-1.49-1.97-1.49-3.26h1.75c0,.8.32,1.46.97,1.98.63.52,1.37.78,2.23.78,1.19,0,2.13-.53,2.83-1.59.71-1.06,1.07-2.48,1.07-4.25-.47.47-1.02.83-1.65,1.1s-1.27.39-1.94.39c-1.45,0-2.71-.44-3.77-1.33-1.06-.92-1.59-2.06-1.59-3.42ZM734.39,832.97c0,.94.36,1.74,1.07,2.4.7.64,1.54.96,2.51.96s1.82-.32,2.51-.96c.71-.66,1.07-1.46,1.07-2.4s-.36-1.74-1.07-2.4c-.7-.64-1.54-.96-2.51-.96s-1.82.32-2.51.96c-.72.66-1.07,1.46-1.07,2.4Z"/>
    <path class="st2" d="M745.69,843.88v-15.86h10.9v1.88h-8.92v4.85h7.93v1.88h-7.93v7.25h-1.98Z"/>
    <path class="st2" d="M756.98,843.88l5.17-15.86h2.56l5.17,15.86h-1.98l-1.59-4.75h-5.74l-1.59,4.75h-1.98ZM761.13,837.36h4.59l-2.3-6.86-2.3,6.86Z"/>
    <path class="st2" d="M770.78,839.14c0-.87.24-1.65.73-2.34.49-.71,1.13-1.22,1.93-1.51-.69-.24-1.25-.67-1.67-1.28-.42-.61-.62-1.28-.62-2.01,0-1.24.53-2.25,1.59-3.03,1.01-.75,2.2-1.12,3.57-1.12s2.56.38,3.56,1.12c1.06.78,1.59,1.79,1.59,3.03,0,.73-.23,1.4-.68,2.01-.43.59-1.01,1.02-1.72,1.28.81.29,1.48.8,2,1.51.5.7.75,1.48.75,2.34,0,1.41-.56,2.59-1.67,3.54-1.08.92-2.36,1.38-3.85,1.38s-2.78-.46-3.85-1.38c-1.11-.96-1.67-2.14-1.67-3.54ZM772.56,839.13c0,.92.38,1.69,1.15,2.3.73.57,1.6.86,2.61.86s1.87-.29,2.58-.86c.76-.61,1.15-1.37,1.15-2.3s-.38-1.61-1.15-2.17c-.73-.54-1.59-.81-2.58-.81s-1.87.26-2.58.78c-.78.57-1.17,1.3-1.17,2.19ZM772.92,832c0,.75.36,1.35,1.07,1.78.64.4,1.42.6,2.32.6s1.67-.2,2.3-.6c.71-.44,1.07-1.03,1.07-1.78s-.36-1.35-1.07-1.78c-.63-.4-1.39-.6-2.3-.6s-1.68.2-2.32.6c-.71.44-1.07,1.03-1.07,1.78Z"/>
    <path class="st2" d="M783.2,835.95c0-2.49.59-4.49,1.77-6,1.2-1.5,2.78-2.24,4.75-2.24,1.55,0,2.89.5,4.02,1.49,1.15,1.01,1.79,2.27,1.93,3.78h-1.98c-.09-.99-.51-1.83-1.28-2.5-.77-.66-1.66-.99-2.69-.99-1.43,0-2.57.68-3.42,2.04-.75,1.22-1.12,2.7-1.12,4.43s.38,3.16,1.15,4.36c.85,1.32,1.98,1.98,3.39,1.98,1.17,0,2.1-.35,2.82-1.04.73-.7,1.11-1.63,1.15-2.79h1.98c0,1.7-.54,3.06-1.62,4.07-1.1,1.03-2.54,1.54-4.33,1.54-1.96,0-3.55-.74-4.75-2.22-1.18-1.48-1.77-3.44-1.77-5.9Z"/>
    <path class="st2" d="M796.79,837.93v-1.98c0-2.17.5-4.03,1.51-5.56,1.13-1.7,2.61-2.56,4.43-2.56,1.32,0,2.46.44,3.42,1.3.97.89,1.46,1.97,1.46,3.24h-1.8c0-.78-.31-1.44-.94-1.98-.59-.52-1.3-.78-2.14-.78-1.34,0-2.39.65-3.16,1.96-.68,1.15-1.02,2.55-1.02,4.2.33-.7.84-1.24,1.54-1.64.68-.37,1.43-.55,2.24-.55,1.51,0,2.81.49,3.89,1.46,1.1,1.01,1.64,2.24,1.64,3.68s-.54,2.76-1.62,3.81c-1.1,1.03-2.4,1.54-3.91,1.54s-2.91-.62-3.99-1.85c-1.04-1.18-1.57-2.61-1.57-4.28ZM798.77,838.92c0,.96.35,1.77,1.04,2.45.71.68,1.56,1.02,2.53,1.02,1.03,0,1.91-.36,2.66-1.07.73-.71,1.1-1.58,1.1-2.61,0-.97-.37-1.79-1.12-2.45-.73-.66-1.61-.99-2.63-.99s-1.83.36-2.53,1.07c-.7.71-1.04,1.57-1.04,2.58Z"/>
  </g>
  <g>
    <path class="st0" d="M100.08,835.45v-1.7h3.63l.94-2.9h1.7l-.94,2.9h3.29l.94-2.9h1.67l-.94,2.9h2.66v1.7h-3.18l-1.07,3.29h3v1.67h-3.55l-1.1,3.39h-1.67l1.07-3.39h-3.26l-1.1,3.39h-1.7l1.1-3.39h-2.74v-1.67h3.29l1.04-3.29h-3.08ZM108.14,835.45h-3.29l-1.07,3.29h3.29l1.07-3.29Z"/>
    <path class="st0" d="M115.19,843.8c0-1.51.57-2.93,1.7-4.25.92-1.1,2.21-2.12,3.86-3.08,1.11-.64,1.93-1.22,2.45-1.72.75-.77,1.12-1.58,1.12-2.45,0-.82-.36-1.5-1.07-2.04-.68-.49-1.48-.73-2.4-.73s-1.77.32-2.45.96c-.7.66-1.04,1.46-1.04,2.4v.99h-1.77v-.99c0-1.43.52-2.64,1.57-3.65,1.03-.99,2.26-1.49,3.7-1.49s2.63.42,3.65,1.25c1.06.89,1.59,1.98,1.59,3.29,0,1.15-.42,2.23-1.25,3.23-.7.83-1.66,1.61-2.9,2.32l-.55.31c-2.33,1.32-3.61,2.61-3.83,3.86h8.53v1.77h-10.9Z"/>
    <path class="st0" d="M127.53,835.87c0-2.49.59-4.49,1.77-6,1.2-1.5,2.78-2.24,4.75-2.24,1.55,0,2.89.5,4.02,1.49,1.15,1.01,1.79,2.27,1.93,3.78h-1.98c-.09-.99-.51-1.83-1.28-2.5-.77-.66-1.66-.99-2.69-.99-1.43,0-2.57.68-3.42,2.04-.75,1.22-1.12,2.7-1.12,4.43s.38,3.16,1.15,4.36c.85,1.32,1.98,1.98,3.39,1.98,1.17,0,2.1-.35,2.82-1.04.73-.7,1.11-1.63,1.15-2.79h1.98c0,1.7-.54,3.06-1.62,4.07-1.1,1.03-2.54,1.54-4.33,1.54-1.96,0-3.55-.74-4.75-2.22-1.18-1.48-1.77-3.44-1.77-5.9Z"/>
    <path class="st0" d="M141.22,843.8c0-1.51.57-2.93,1.7-4.25.92-1.1,2.21-2.12,3.86-3.08,1.11-.64,1.93-1.22,2.45-1.72.75-.77,1.12-1.58,1.12-2.45,0-.82-.36-1.5-1.07-2.04-.68-.49-1.48-.73-2.4-.73s-1.77.32-2.45.96c-.7.66-1.04,1.46-1.04,2.4v.99h-1.77v-.99c0-1.43.52-2.64,1.57-3.65,1.03-.99,2.26-1.49,3.7-1.49s2.63.42,3.65,1.25c1.06.89,1.59,1.98,1.59,3.29,0,1.15-.42,2.23-1.25,3.23-.7.83-1.66,1.61-2.9,2.32l-.55.31c-2.33,1.32-3.61,2.61-3.83,3.86h8.53v1.77h-10.9Z"/>
    <path class="st0" d="M153.56,835.87c0-2.49.59-4.49,1.77-6,1.2-1.5,2.78-2.24,4.75-2.24,1.55,0,2.89.5,4.02,1.49,1.15,1.01,1.79,2.27,1.93,3.78h-1.98c-.09-.99-.51-1.83-1.28-2.5-.77-.66-1.66-.99-2.69-.99-1.43,0-2.57.68-3.42,2.04-.75,1.22-1.12,2.7-1.12,4.43s.38,3.16,1.15,4.36c.85,1.32,1.98,1.98,3.39,1.98,1.17,0,2.1-.35,2.82-1.04.73-.7,1.11-1.63,1.15-2.79h1.98c0,1.7-.54,3.06-1.62,4.07-1.1,1.03-2.54,1.54-4.33,1.54-1.96,0-3.55-.74-4.75-2.22-1.18-1.48-1.77-3.44-1.77-5.9Z"/>
    <path class="st0" d="M167.26,843.8c0-1.51.57-2.93,1.7-4.25.92-1.1,2.21-2.12,3.86-3.08,1.11-.64,1.93-1.22,2.45-1.72.75-.77,1.12-1.58,1.12-2.45,0-.82-.36-1.5-1.07-2.04-.68-.49-1.48-.73-2.4-.73s-1.77.32-2.45.96c-.7.66-1.04,1.46-1.04,2.4v.99h-1.77v-.99c0-1.43.52-2.64,1.57-3.65,1.03-.99,2.26-1.49,3.7-1.49s2.63.42,3.65,1.25c1.06.89,1.59,1.98,1.59,3.29,0,1.15-.42,2.23-1.25,3.23-.7.83-1.66,1.61-2.9,2.32l-.55.31c-2.33,1.32-3.61,2.61-3.83,3.86h8.53v1.77h-10.9Z"/>
    <path class="st0" d="M179.59,835.87c0-2.49.59-4.49,1.77-6,1.2-1.5,2.78-2.24,4.75-2.24,1.55,0,2.89.5,4.02,1.49,1.15,1.01,1.79,2.27,1.93,3.78h-1.98c-.09-.99-.51-1.83-1.28-2.5-.77-.66-1.66-.99-2.69-.99-1.43,0-2.57.68-3.42,2.04-.75,1.22-1.12,2.7-1.12,4.43s.38,3.16,1.15,4.36c.85,1.32,1.98,1.98,3.39,1.98,1.17,0,2.1-.35,2.82-1.04.73-.7,1.11-1.63,1.15-2.79h1.98c0,1.7-.54,3.06-1.62,4.07-1.1,1.03-2.54,1.54-4.33,1.54-1.96,0-3.55-.74-4.75-2.22-1.18-1.48-1.77-3.44-1.77-5.9Z"/>
  </g>
</svg>