<?xml version="1.0" encoding="UTF-8"?>
<svg id="Layer_1" xmlns="http://www.w3.org/2000/svg" version="1.1" viewBox="0 0 496.89 411.73">
  <!-- Generator: Adobe Illustrator 29.1.0, SVG Export Plug-In . SVG Version: 2.1.0 Build 142)  -->
  <defs>
    <style>
      .st0 {
        fill: #13213c;
      }
    </style>
  </defs>
  <path class="st0" d="M248.05,292.05c0-65.45-26.4-91.3-66-100.65,42.9-9.35,72.05-41.25,72.05-90.2,0-27.38-8.22-50.7-24.26-68.03l-8.03-7.62C202.36,9.28,174.28,0,138.05,0H27.47L0,27.47l30.25.03h101.2c59.95,0,90.75,26.95,90.75,74.25,0,50.6-31.35,75.9-99,75.9H0v203.94l30.14,30.14h.11v-206.58h94.6c73.7,0,92.4,26.4,92.4,89.65v9.9c0,14.38.25,28.14.56,40.57l30.25-36.62c0-.58,0-1.17,0-1.74v-14.85Z"/>
  <path class="st0" d="M467.19.6v200.17c-22.64-21.83-126.71-122.12-207.51-200.33h-38.86l169.92,164.03-171.85,203.03v44.24l193.3-228.02,55,48.4v179.62h.41l29.29-29.29V30.3L467.19.6Z"/>
</svg>