<?xml version="1.0" encoding="UTF-8"?>
<svg id="Layer_1" xmlns="http://www.w3.org/2000/svg" version="1.1" viewBox="0 0 514.44 411.73">
  <!-- Generator: Adobe Illustrator 29.1.0, SVG Export Plug-In . SVG Version: 2.1.0 Build 142)  -->
  <defs>
    <style>
      .st0 {
        fill: #13213c;
      }
    </style>
  </defs>
  <path class="st0" d="M271.38,292.05c0-65.45-28.88-91.3-72.21-100.65,46.94-9.35,78.83-41.25,78.83-90.2,0-27.38-8.99-50.7-26.54-68.03l-8.79-7.62C221.39,9.28,190.67,0,151.03,0H30.05L0,27.47l33.1.03h110.72c65.59,0,99.29,26.95,99.29,74.25,0,50.6-34.3,75.9-108.31,75.9H0v203.94l32.97,30.14h.12v-206.58h103.5c80.63,0,101.09,26.4,101.09,89.65v9.9c0,14.38.27,28.14.61,40.57l33.1-36.62v-16.59h-.01Z"/>
  <path class="st0" d="M484.74.38v200.17c-22.64-21.83-126.71-122.12-207.51-200.33h-38.86l169.92,164.03-171.85,203.03v44.24l193.3-228.02,55,48.4v179.62h.41l29.29-29.29V30.08L484.74.38Z"/>
</svg>