<?xml version="1.0" encoding="UTF-8"?>
<svg id="Layer_1" xmlns="http://www.w3.org/2000/svg" version="1.1" viewBox="0 0 900 900">
  <!-- Generator: Adobe Illustrator 29.1.0, SVG Export Plug-In . SVG Version: 2.1.0 Build 142)  -->
  <defs>
    <style>
      .st0 {
        fill: #ffc82a;
      }

      .st1 {
        fill: #75bd43;
      }

      .st2 {
        fill: #cf202d;
      }

      .st3 {
        fill: #f26625;
      }

      .st4 {
        fill: #a23995;
      }

      .st5 {
        fill: #11a0db;
      }
    </style>
  </defs>
  <path class="st1" d="M477.8,179.7c-26.8,31.7-37.9,70-32.7,101.5,32,0,67.9-17.4,94.7-49.1,26.8-31.7,37.9-70,32.7-101.5-32,0-67.9,17.4-94.7,49.1Z"/>
  <g>
    <path class="st1" d="M675.1,352.5c-32.1-35.4-78.5-57.5-130-57.5s-47.1,5.4-64.6,11.2c-21.5,4.1-29.8,4.4-50.7-2.5-17.5-5.8-40.9-8.7-60.3-8.7-57,0-107.7,27.2-139.8,69.4h430.5c4.7-4.2,9.7-8.2,14.9-11.9h0Z"/>
    <path class="st0" d="M660.1,364.3H229.6c-18,23.6-30,51.8-34.2,82.6h417c5.6-31.9,22.7-60.5,47.6-82.6h0Z"/>
    <path class="st3" d="M612.5,447H195.4c-1.1,7.7-1.6,15.6-1.6,23.6,0,16.7,2.3,36.5,6.7,57.9h423.4c-8.7-18-13.6-37.8-13.6-58.5s.7-15.5,2-23h0Z"/>
    <g>
      <path class="st2" d="M624,528.4H200.5c5.3,25.6,13.4,53.6,23.9,80.9h465.6c1.3-3.4,2.6-6.9,3.8-10.3-31-16.5-55.7-41.2-69.9-70.6h0Z"/>
      <g>
        <path class="st5" d="M369.4,769.4c21.5,0,42-3.8,61.1-10.9,17.2-6.4,36.2-6.4,53.3,0,19,7.1,39.6,10.9,61.1,10.9,39.3,0,75.6-33.2,104.9-79.1h-385.3c29.3,46,65.6,79.1,104.9,79.1h0Z"/>
        <path class="st4" d="M224.5,609.3c10.9,28.6,24.5,56.5,40.1,80.9h385.4c15.6-24.4,29.1-52.4,40.1-80.9H224.5Z"/>
      </g>
    </g>
  </g>
</svg>