<?xml version="1.0" encoding="UTF-8"?>
<svg id="Layer_1" xmlns="http://www.w3.org/2000/svg" version="1.1" viewBox="0 0 900 900">
  <!-- Generator: Adobe Illustrator 29.1.0, SVG Export Plug-In . SVG Version: 2.1.0 Build 142)  -->
  <defs>
    <style>
      .st0 {
        fill: #231f20;
      }

      .st1 {
        fill: #ff9a00;
      }

      .st2 {
        opacity: .9;
      }

      .st3 {
        fill: #300;
      }
    </style>
  </defs>
  <g>
    <path class="st0" d="M306.6,583v-7.9c-6.5,6.6-13,9.3-22.5,9.3-19.8,0-34.1-13.3-34.1-31.6s14.4-32.1,34.5-32.1,16.5,2.8,22.1,9.6v-8.1h14.9v60.8h-14.9ZM286.1,534.2c-11.6,0-19.8,7.9-19.8,19s8.2,17.9,20.1,17.9,19.7-7.9,19.7-18-8.3-18.9-19.9-18.9h-.1Z"/>
    <path class="st0" d="M387.1,583v-7.9c-6.5,6.6-13.2,9.3-22.4,9.3-19.2,0-34-13.9-34-32s14.9-32.5,33.9-32.5,16.4,2.8,21.2,7.6v-25.7h16.3v81.2h-15ZM366.9,533.4c-11.1,0-19.8,8.1-19.8,18.4s8.8,19.2,20.2,19.2,19.7-8.2,19.7-18.8-8.7-18.9-20.1-18.9h0Z"/>
    <path class="st0" d="M414.3,583v-60.8h16.3v60.8h-16.3ZM414.5,513.4v-14.6h16.3v14.6h-16.3Z"/>
    <path class="st0" d="M497.2,583v-7.9c-6.5,6.6-13.2,9.3-22.4,9.3-19.2,0-34-13.9-34-32s14.9-32.5,33.9-32.5,16.4,2.8,21.2,7.6v-25.7h16.3v81.2h-15ZM477,533.4c-11.1,0-19.8,8.1-19.8,18.4s8.8,19.2,20.2,19.2,19.7-8.2,19.7-18.8-8.7-18.9-20.1-18.9h0Z"/>
    <path class="st0" d="M578.2,583v-7.9c-6.5,6.6-13,9.3-22.5,9.3-19.8,0-34.1-13.3-34.1-31.6s14.5-32.1,34.5-32.1,16.5,2.8,22.1,9.6v-8.1h14.9v60.8h-14.9ZM557.7,534.2c-11.6,0-19.8,7.9-19.8,19s8.2,17.9,20.1,17.9,19.7-7.9,19.7-18-8.3-18.9-19.9-18.9h0Z"/>
    <path class="st0" d="M625.7,584.5c-13.5,0-23.1-6.6-24.8-20.8h16.4c1.6,5.2,4.3,7.3,9,7.3s7.3-2.5,7.3-5.9-.6-4.5-11.5-7.8c-13.5-4-18.8-9.1-18.8-18s9.9-18.5,22.5-18.5,21.6,6.8,22.2,18.2h-15.9c-.7-3.2-3-4.8-6.4-4.8s-6.3,2.2-6.3,5.2.3,3.4,11.5,6.6c14.2,4,18.8,8.8,18.8,17.8s-10.6,20.8-24.2,20.8h.2Z"/>
  </g>
  <g>
    <polygon class="st0" points="426.6 379.6 426.6 379.6 369.2 415.2 414.5 499.5 491.1 499.5 426.7 379.6 426.6 379.6"/>
    <polygon class="st0" points="354.4 444.7 307.9 473.5 321.9 499.5 383.8 499.5 354.4 444.7"/>
    <polygon class="st0" points="498.7 314.2 441.2 349.9 441.3 349.9 441.4 349.9 449.6 365.3 449.6 365.3 521.6 499.5 598.2 499.5 498.7 314.2"/>
    <polygon class="st0" points="426.7 379.6 426.7 379.6 426.6 379.6 426.6 379.6 426.7 379.6"/>
    <polygon class="st0" points="441.4 349.9 441.3 349.9 449.6 365.3 449.6 365.3 441.4 349.9"/>
  </g>
  <g class="st2">
    <path class="st3" d="M64.5,831h29.1c4.4,0,8,3.6,8,8v27.9c0,4.4-3.6,8-8,8h-29.1c-4.4,0-8-3.6-8-8v-27.9c0-4.4,3.6-8,8-8Z"/>
    <g>
      <path class="st1" d="M78.3,857.5h-7l-1.4,4.4c0,.2-.2.3-.4.3h-3.5c-.2,0-.3,0-.2-.3l6-17.4c0-.2,0-.4.2-.6v-1.2s0-.2.2-.2h4.9c.1,0,.2,0,.2.2l6.8,19.3c0,.2,0,.3-.2.3h-3.9s-.3,0-.3-.2l-1.5-4.5h.1ZM72.4,853.5h4.8c0-.4-.3-.9-.4-1.3-.2-.5-.3-1.1-.5-1.6-.2-.6-.4-1.1-.5-1.7s-.4-1.1-.5-1.7c-.2-.5-.3-1-.4-1.5h0c-.2.8-.4,1.6-.6,2.4-.3.9-.6,1.8-.9,2.8-.3,1-.5,1.8-.8,2.6,0,0-.2,0-.2,0Z"/>
      <path class="st1" d="M88.3,845.5c-.6,0-1.2-.2-1.7-.7-.4-.5-.7-1.1-.6-1.7,0-.6.2-1.2.7-1.7s1.1-.7,1.7-.7,1.3.2,1.7.7c.4.4.6,1.1.6,1.7s-.2,1.3-.7,1.7c-.4.4-1.1.7-1.7.7h0ZM86.2,861.8v-14.4c0-.2,0-.3.2-.3h3.7c.1,0,.2,0,.2.3v14.4c0,.2,0,.3-.2.3h-3.7c-.2,0-.3,0-.3-.3h0Z"/>
    </g>
  </g>
</svg>