<?xml version="1.0" encoding="UTF-8"?>
<svg id="Layer_1" xmlns="http://www.w3.org/2000/svg" version="1.1" viewBox="0 0 900 900">
  <!-- Generator: Adobe Illustrator 29.1.0, SVG Export Plug-In . SVG Version: 2.1.0 Build 142)  -->
  <defs>
    <style>
      .st0 {
        fill: #ff9a00;
      }

      .st1 {
        opacity: .9;
      }

      .st2 {
        fill: #300;
      }

      .st3 {
        fill: #231f20;
        stroke: #231f20;
        stroke-miterlimit: 10;
        stroke-width: 4px;
      }
    </style>
  </defs>
  <path class="st3" d="M613.6,496.5c-1.7,3.3-3.6,6.5-5.7,9.5-18.1,27-48.9,44.7-83.8,44.7s-1,0-1.5,0h0c-12.6-.2-24.6-2.7-35.6-7.1h-.2c15.1-17.6,26.1-39,31.2-62.5,0-.2,0-.3,0-.5,0-.2,0-.5.2-.8h0c0-.3,0-.6.2-.9h0c0-.3,0-.6,0-.8,0-.6.2-1.1.3-1.7.2-.8.3-1.7.4-2.5,0-.9.3-1.7.4-2.6,0-.9.3-1.8.4-2.7,0-.9.2-1.8.3-2.8,0-1,.2-2,.3-3,0-1,.2-2,.2-3,.2-3.2.3-6.5.3-9.8s0-5-.2-7.4c0-1.2,0-2.4-.2-3.5,0-1.9-.3-3.7-.5-5.6,0-.4,0-.9-.2-1.3,0-.8-.2-1.7-.3-2.5-.2-1.1-.3-2.2-.5-3.4h0c-.3-1.8-.6-3.6-1-5.3h0c-5-24.4-16.1-46.5-31.7-64.7h.1c11.2-4.5,23.3-7,36-7.1h1.4c2.9,0,5.9.1,8.7.4h.3c24.8,2.2,46.9,13.3,63.3,30.2h0c6.3,6.5,11.8,13.8,16.1,21.8l35.6-20.6,1.4-.8c-19-34.1-51.5-59.8-90.3-69.6-11.4-2.9-23.3-4.4-35.5-4.4s-16.5.7-24.4,2.1c-17.4,3-33.8,9.1-48.5,17.8,0,0-.2.1-.3.1-21.4-12.7-46.5-20-73.2-20-53.9,0-100.9,29.7-125.5,73.6l6.1,3.5,31.4,18.1c15.4-27.9,43.7-47.8,76.8-51.6h.6c3.6-.4,7.2-.6,11-.6,13.1,0,25.6,2.5,37.1,7-.1.1-.2.2-.3.4h0c-9.1,10.6-16.6,22.5-22.4,35.5-7.8,17.7-12.2,37.4-12.2,58,0,33.9,11.7,65.1,31.4,89.7,1,1.3,2.1,2.6,3.2,3.9,0,0,.1.2.2.2-.9.3-1.7.7-2.6,1-8.7,3.2-18,5.2-27.6,5.8h-1.6c-1.7,0-3.5,0-5.2,0-39,0-72.8-22.1-89.6-54.4l-37.5,21.7c.2.5.5.9.8,1.4,24.5,44.4,71.7,74.5,126,74.5s50.3-6.9,71.3-18.9c.6-.4,1.3-.7,1.9-1.1.1,0,.2,0,.3.2,21.4,12.6,46.3,19.8,72.9,19.8,42.9,0,81.3-18.8,107.7-48.5,7.4-8.3,13.8-17.5,19.1-27.4l-37.1-21.4h0l.2-.2ZM450.9,519.3c-.1-.2-.3-.3-.5-.5-16.9-18-27.2-42.3-27.2-68.9s10.3-50.8,27.1-68.8c.2-.2.4-.4.5-.6,17.1,18.1,27.6,42.5,27.6,69.4s-10.5,51.3-27.6,69.4h.1Z"/>
  <g class="st1">
    <path class="st2" d="M64.5,831h29.1c4.4,0,8,3.6,8,8v27.9c0,4.4-3.6,8-8,8h-29.1c-4.4,0-8-3.6-8-8v-27.9c0-4.4,3.6-8,8-8Z"/>
    <g>
      <path class="st0" d="M78.3,857.5h-7l-1.4,4.4c0,.2-.2.3-.4.3h-3.5c-.2,0-.3,0-.2-.3l6-17.4c0-.2,0-.4.2-.6v-1.2s0-.2.2-.2h4.9c.1,0,.2,0,.2.2l6.8,19.3c0,.2,0,.3-.2.3h-3.9s-.3,0-.3-.2l-1.5-4.5h.1ZM72.4,853.5h4.8c0-.4-.3-.9-.4-1.3-.2-.5-.3-1.1-.5-1.6-.2-.6-.4-1.1-.5-1.7s-.4-1.1-.5-1.7c-.2-.5-.3-1-.4-1.5h0c-.2.8-.4,1.6-.6,2.4-.3.9-.6,1.8-.9,2.8-.3,1-.5,1.8-.8,2.6,0,0-.2,0-.2,0Z"/>
      <path class="st0" d="M88.3,845.5c-.6,0-1.2-.2-1.7-.7-.4-.5-.7-1.1-.6-1.7,0-.6.2-1.2.7-1.7s1.1-.7,1.7-.7,1.3.2,1.7.7c.4.4.6,1.1.6,1.7s-.2,1.3-.7,1.7c-.4.4-1.1.7-1.7.7h0ZM86.2,861.8v-14.4c0-.2,0-.3.2-.3h3.7c.1,0,.2,0,.2.3v14.4c0,.2,0,.3-.2.3h-3.7c-.2,0-.3,0-.3-.3h0Z"/>
    </g>
  </g>
</svg>