<?xml version="1.0" encoding="UTF-8"?>
<svg id="Layer_1" xmlns="http://www.w3.org/2000/svg" version="1.1" viewBox="0 0 900 900">
  <!-- Generator: Adobe Illustrator 29.1.0, SVG Export Plug-In . SVG Version: 2.1.0 Build 142)  -->
  <defs>
    <style>
      .st0 {
        fill: #ec2027;
      }

      .st1 {
        fill: #ff9a00;
      }

      .st2 {
        opacity: .9;
      }

      .st3 {
        fill: #300;
      }
    </style>
  </defs>
  <circle class="st0" cx="450" cy="450" r="72"/>
  <path class="st0" d="M450,250c-21.1,0-41.5,3.3-60.6,9.4v107c17-12.4,38-19.7,60.6-19.7,57,0,103.3,46.2,103.3,103.3s-46.2,103.3-103.3,103.3-103.3-46.2-103.3-103.3v-171.3c-57.9,35-96.7,98.6-96.7,171.3,0,110.5,89.5,200,200,200s200-89.5,200-200-89.5-200-200-200h0Z"/>
  <g class="st2">
    <path class="st3" d="M64.5,831h29.1c4.4,0,8,3.6,8,8v27.9c0,4.4-3.6,8-8,8h-29.1c-4.4,0-8-3.6-8-8v-27.9c0-4.4,3.6-8,8-8Z"/>
    <g>
      <path class="st1" d="M78.3,857.5h-7l-1.4,4.4c0,.2-.2.3-.4.3h-3.5c-.2,0-.3,0-.2-.3l6-17.4c0-.2,0-.4.2-.6v-1.2s0-.2.2-.2h4.9c.1,0,.2,0,.2.2l6.8,19.3c0,.2,0,.3-.2.3h-3.9s-.3,0-.3-.2l-1.5-4.5h.1ZM72.4,853.5h4.8c0-.4-.3-.9-.4-1.3-.2-.5-.3-1.1-.5-1.6-.2-.6-.4-1.1-.5-1.7s-.4-1.1-.5-1.7c-.2-.5-.3-1-.4-1.5h0c-.2.8-.4,1.6-.6,2.4-.3.9-.6,1.8-.9,2.8-.3,1-.5,1.8-.8,2.6,0,0-.2,0-.2,0Z"/>
      <path class="st1" d="M88.3,845.5c-.6,0-1.2-.2-1.7-.7-.4-.5-.7-1.1-.6-1.7,0-.6.2-1.2.7-1.7s1.1-.7,1.7-.7,1.3.2,1.7.7c.4.4.6,1.1.6,1.7s-.2,1.3-.7,1.7c-.4.4-1.1.7-1.7.7h0ZM86.2,861.8v-14.4c0-.2,0-.3.2-.3h3.7c.1,0,.2,0,.2.3v14.4c0,.2,0,.3-.2.3h-3.7c-.2,0-.3,0-.3-.3h0Z"/>
    </g>
  </g>
</svg>