<?xml version="1.0" encoding="UTF-8"?>
<svg id="Layer_3" xmlns="http://www.w3.org/2000/svg" version="1.1" viewBox="0 0 765.33 841.89">
  <!-- Generator: Adobe Illustrator 29.1.0, SVG Export Plug-In . SVG Version: 2.1.0 Build 142)  -->
  <defs>
    <style>
      .st0 {
        fill: none;
      }

      .st1 {
        fill: #f1b61c;
      }

      .st2 {
        fill: #e53e2b;
      }

      .st3 {
        fill: #2da24b;
      }

      .st4 {
        fill: #4d76bb;
      }
    </style>
  </defs>
  <path class="st0" d="M511.38,235.22l-63.56,63.56c-19.41-10.41-41.59-16.34-65.16-16.34-52.18,0-97.59,28.97-121.05,71.7-10.8,19.68-16.95,42.27-16.95,66.3,0,12.56,1.69,24.72,4.83,36.28l-24.67,20.11-47.77,37.9c-13.05-28.57-20.35-60.32-20.35-93.79,0-44.11,12.65-85.26,34.51-120.04,39.97-63.62,110.77-105.92,191.45-105.92,47.84,0,92.19,14.88,128.72,40.24Z"/>
  <path class="st0" d="M608.63,420.94c0,57.79-21.7,110.5-57.38,150.45-41.38,46.34-101.57,75.52-168.59,75.52-91.04,0-169.49-53.85-205.28-131.43l47.44-38.65,24.79-19.68c16.08,58.39,69.55,101.29,133.05,101.29,37.55,0,71.59-14.99,96.47-39.32,19.13-18.71,32.85-42.94,38.57-70.12h-140v-88h129.54c-.05-.09-.1-.18-.14-.28h93.4c5.29,19.18,8.13,39.37,8.13,60.22Z"/>
  <g>
    <path class="st4" d="M506.48,359.72h93.67c5.31,19.18,8.15,39.37,8.15,60.22,0,57.79-21.76,110.5-57.55,150.45l-72.33-52.27c19.19-18.71,32.94-42.94,38.68-70.12h-140.4v-88"/>
    <path class="st2" d="M511.38,235.22l-63.56,63.56c-19.41-10.41-41.59-16.34-65.16-16.34-52.18,0-97.59,28.97-121.05,71.7l-70.4-53.24c39.97-63.62,110.77-105.92,191.45-105.92,47.84,0,92.19,14.88,128.72,40.24Z"/>
    <path class="st1" d="M177.05,514.73c-13.05-28.57-20.35-60.32-20.35-93.79,0-44.11,12.65-85.26,34.51-120.04l70.4,53.24c-10.8,19.68-16.95,42.27-16.95,66.3,0,12.56,1.69,24.72,4.83,36.28"/>
    <path class="st3" d="M249.08,455.73c16.09,58.53,69.59,101.53,133.12,101.53,37.57,0,71.63-15.03,96.52-39.41l72.16,52.4c-41.4,46.45-101.62,75.7-168.68,75.7-91.09,0-169.58-53.98-205.38-131.75"/>
  </g>
</svg>