<?xml version="1.0" encoding="UTF-8"?>
<svg id="Layer_1" xmlns="http://www.w3.org/2000/svg" version="1.1" viewBox="0 0 900 900">
  <!-- Generator: Adobe Illustrator 29.1.0, SVG Export Plug-In . SVG Version: 2.1.0 Build 142)  -->
  <defs>
    <style>
      .st0 {
        fill: #231f20;
        stroke: #231f20;
        stroke-miterlimit: 10;
        stroke-width: 4px;
      }
    </style>
  </defs>
  <path class="st0" d="M653.75,507.99c-2.15,4.11-4.51,8.08-7.08,11.91-22.56,33.62-60.92,55.75-104.45,55.75-.64,0-1.28,0-1.92-.02h-.14c-15.66-.25-30.63-3.37-44.4-8.85-.08-.03-.15-.06-.23-.09,18.87-21.99,32.49-48.59,38.96-77.89.05-.21.1-.42.15-.63.06-.31.13-.62.19-.94.02-.03.02-.07.02-.11.09-.38.17-.77.24-1.16.01-.06.03-.13.04-.19h0c.06-.31.11-.6.17-.9.14-.71.28-1.43.42-2.14.19-1.03.37-2.07.54-3.1.18-1.07.34-2.13.5-3.2.16-1.11.32-2.21.46-3.32.15-1.14.28-2.29.41-3.44.13-1.23.25-2.46.36-3.69.11-1.24.21-2.48.29-3.72.27-4.05.41-8.14.41-12.26,0-3.09-.08-6.17-.23-9.23-.08-1.48-.17-2.96-.28-4.43-.18-2.32-.4-4.63-.66-6.93-.06-.53-.12-1.06-.19-1.59-.13-1.05-.27-2.1-.42-3.15-.19-1.41-.41-2.81-.64-4.2,0-.03-.01-.06-.01-.09-.37-2.19-.77-4.36-1.21-6.52-.01-.04-.02-.08-.02-.12-6.24-30.33-20.12-57.87-39.56-80.51.05-.02.11-.04.16-.06,13.91-5.56,29.04-8.7,44.89-8.91h.08c.54-.01,1.08-.01,1.62-.01,3.67,0,7.3.16,10.89.47.13.01.25.02.37.03,30.85,2.74,58.5,16.62,78.89,37.6.01,0,.02.03.03.04,7.87,8.1,14.65,17.25,20.12,27.23l44.43-25.65,1.75-1.01c-23.68-42.57-64.18-74.49-112.52-86.77-14.17-3.61-29.02-5.52-44.31-5.52-10.39,0-20.57.88-30.47,2.58-21.74,3.72-42.14,11.35-60.45,22.15-.11.06-.22.12-.33.19-26.73-15.83-57.93-24.92-91.26-24.92-67.22,0-125.81,36.99-156.51,91.72l7.64,4.41,39.09,22.56c19.2-34.83,54.43-59.59,95.75-64.31.25-.03.51-.06.78-.08,4.48-.49,9.04-.74,13.65-.74,16.31,0,31.9,3.11,46.21,8.76-.13.15-.26.3-.38.45h0c-11.32,13.22-20.75,28.11-27.86,44.25-9.76,22.12-15.18,46.58-15.18,72.31,0,42.28,14.63,81.14,39.12,111.8,1.29,1.64,2.63,3.25,3.99,4.84.09.1.17.19.25.29-1.07.42-2.14.83-3.21,1.22-10.86,3.94-22.41,6.43-34.43,7.23-.67.05-1.35.09-2.03.13-2.14.11-4.3.16-6.47.16-48.57,0-90.71-27.55-111.65-67.87l-46.79,27.02c.3.57.61,1.14.93,1.7,30.53,55.33,89.44,92.81,157.11,92.81,32.34,0,62.67-8.56,88.87-23.54.8-.45,1.6-.91,2.39-1.38.14.08.28.17.42.24,26.64,15.69,57.68,24.68,90.83,24.68,53.44,0,101.41-23.37,134.27-60.45,9.21-10.4,17.23-21.87,23.84-34.2l-46.23-26.69ZM451.01,536.44c-.19-.2-.38-.4-.56-.6-21.05-22.47-33.93-52.68-33.93-85.89s12.84-63.33,33.83-85.79c.22-.23.44-.47.66-.7,21.36,22.54,34.47,52.98,34.47,86.49s-13.11,63.95-34.47,86.49Z"/>
</svg>