<?xml version="1.0" encoding="UTF-8"?>
<svg id="Layer_1" xmlns="http://www.w3.org/2000/svg" version="1.1" viewBox="0 0 900 900">
  <!-- Generator: Adobe Illustrator 29.1.0, SVG Export Plug-In . SVG Version: 2.1.0 Build 142)  -->
  <defs>
    <style>
      .st0 {
        fill: #231f20;
      }
    </style>
  </defs>
  <g>
    <path class="st0" d="M198,684.3v-13.9c-11.4,11.6-22.8,16.4-39.6,16.4-34.8,0-60-23.4-60-55.6s25.4-56.4,60.6-56.4,29,5,38.9,16.8v-14.3h26.2v106.9h-26.2ZM162.1,598.4c-20.4,0-34.8,13.9-34.8,33.4s14.4,31.5,35.3,31.5,34.6-13.9,34.6-31.7-14.6-33.2-35-33.2h0Z"/>
    <path class="st0" d="M339.5,684.3v-13.9c-11.4,11.6-23.2,16.4-39.3,16.4-33.8,0-59.8-24.5-59.8-56.2s26.2-57.1,59.6-57.1,28.8,5,37.2,13.3v-45.2h28.6v142.7h-26.2,0ZM304,597c-19.6,0-34.8,14.3-34.8,32.4s15.5,33.8,35.5,33.8,34.6-14.5,34.6-33-15.3-33.2-35.3-33.2h0Z"/>
    <path class="st0" d="M387.4,684.3v-106.9h28.6v106.9h-28.6ZM387.6,561.9v-25.7h28.6v25.7h-28.6Z"/>
    <path class="st0" d="M533,684.3v-13.9c-11.4,11.6-23.2,16.4-39.3,16.4-33.8,0-59.8-24.5-59.8-56.2s26.2-57.1,59.5-57.1,28.8,5,37.2,13.3v-45.2h28.6v142.7h-26.2,0ZM497.5,597c-19.6,0-34.8,14.3-34.8,32.4s15.5,33.8,35.5,33.8,34.6-14.5,34.6-33-15.3-33.2-35.3-33.2h0Z"/>
    <path class="st0" d="M675.3,684.3v-13.9c-11.4,11.6-22.8,16.4-39.6,16.4-34.8,0-60-23.4-60-55.6s25.4-56.4,60.6-56.4,29,5,38.9,16.8v-14.3h26.2v106.9h-26.2,0ZM639.4,598.4c-20.4,0-34.8,13.9-34.8,33.4s14.4,31.5,35.3,31.5,34.6-13.9,34.6-31.7-14.6-33.2-35-33.2h0Z"/>
    <path class="st0" d="M758.9,686.8c-23.7,0-40.6-11.6-43.6-36.5h28.8c2.8,9.1,7.5,12.9,15.9,12.9s12.9-4.4,12.9-10.4-1.1-7.9-20.2-13.7c-23.7-7.1-33.1-16-33.1-31.7s17.4-32.6,39.6-32.6,38,12,39.1,32h-28c-1.3-5.6-5.2-8.5-11.2-8.5s-11,3.9-11,9.1.6,6,20.2,11.6c24.9,7,33.1,15.4,33.1,31.3s-18.7,36.5-42.6,36.5h0Z"/>
  </g>
  <g>
    <polygon class="st0" points="409 326.7 409 326.7 308.1 389.3 387.7 537.5 522.3 537.5 409.1 326.7 409 326.7"/>
    <polygon class="st0" points="282 441.1 200.3 491.8 224.9 537.5 333.8 537.5 282 441.1"/>
    <polygon class="st0" points="535.7 211.9 434.7 274.6 434.8 274.6 434.9 274.5 449.4 301.7 449.3 301.7 575.9 537.5 710.6 537.5 535.7 211.9"/>
    <polygon class="st0" points="409.1 326.7 409.1 326.7 409 326.7 409 326.7 409.1 326.7"/>
    <polygon class="st0" points="434.9 274.5 434.8 274.6 449.3 301.7 449.4 301.7 434.9 274.5"/>
  </g>
</svg>