<?xml version="1.0" encoding="UTF-8"?>
<svg id="Layer_3" xmlns="http://www.w3.org/2000/svg" version="1.1" viewBox="0 0 900 900">
  <!-- Generator: Adobe Illustrator 29.1.0, SVG Export Plug-In . SVG Version: 2.1.0 Build 142)  -->
  <defs>
    <style>
      .st0 {
        fill: none;
      }

      .st1 {
        fill: #4d76bb;
      }

      .st2 {
        fill: #ff9a00;
      }

      .st3 {
        fill: #f1b61c;
      }

      .st4 {
        fill: #e53e2b;
      }

      .st5 {
        opacity: .9;
      }

      .st6 {
        fill: #300;
      }

      .st7 {
        fill: #2da24b;
      }
    </style>
  </defs>
  <path class="st0" d="M578.7,264.3l-63.6,63.6c-19.4-10.4-41.6-16.3-65.2-16.3-52.2,0-97.6,29-121.1,71.7-10.8,19.7-16.9,42.3-16.9,66.3s1.7,24.7,4.8,36.3l-24.7,20.1-47.8,37.9c-13.1-28.6-20.4-60.3-20.4-93.8s12.6-85.3,34.5-120c40-63.6,110.8-105.9,191.4-105.9s92.2,14.9,128.7,40.2h.3Z"/>
  <path class="st0" d="M676,450c0,57.8-21.7,110.5-57.4,150.5-41.4,46.3-101.6,75.5-168.6,75.5s-169.5-53.8-205.3-131.4l47.4-38.6,24.8-19.7c16.1,58.4,69.6,101.3,133.1,101.3s71.6-15,96.5-39.3c19.1-18.7,32.9-42.9,38.6-70.1h-140v-88h129.5s0-.2,0-.3h93.4c5.3,19.2,8.1,39.4,8.1,60.2h0Z"/>
  <g>
    <path class="st1" d="M587.1,382.2h103.7c5.9,21.3,9,43.6,9,66.8,0,64.1-24.1,122.5-63.7,166.8l-80.1-58c21.2-20.7,36.5-47.6,42.8-77.7h-155.4v-97.6"/>
    <path class="st4" d="M592.5,244.1l-70.4,70.5c-21.5-11.5-46-18.1-72.1-18.1-57.8,0-108.1,32.1-134,79.5l-78-59c44.3-70.5,122.6-117.4,212-117.4s102.1,16.5,142.5,44.6h0Z"/>
    <path class="st3" d="M222.4,554c-14.4-31.7-22.5-66.9-22.5-104s14-94.5,38.2-133.1l77.9,59c-12,21.8-18.8,46.9-18.8,73.5s1.9,27.4,5.3,40.2"/>
    <path class="st7" d="M302.1,488.6c17.8,64.9,77.1,112.6,147.4,112.6s79.3-16.7,106.9-43.7l79.9,58.1c-45.8,51.5-112.5,83.9-186.8,83.9s-187.7-59.8-227.4-146.1"/>
  </g>
  <g class="st5">
    <path class="st6" d="M64.5,831h29.1c4.4,0,8,3.6,8,8v27.9c0,4.4-3.6,8-8,8h-29.1c-4.4,0-8-3.6-8-8v-27.9c0-4.4,3.6-8,8-8Z"/>
    <g>
      <path class="st2" d="M78.3,857.5h-7l-1.4,4.4c0,.2-.2.3-.4.3h-3.5c-.2,0-.3,0-.2-.3l6-17.4c0-.2,0-.4.2-.6v-1.2s0-.2.2-.2h4.9c.1,0,.2,0,.2.2l6.8,19.3c0,.2,0,.3-.2.3h-3.9s-.3,0-.3-.2l-1.5-4.5h.1ZM72.4,853.5h4.8c0-.4-.3-.9-.4-1.3-.2-.5-.3-1.1-.5-1.6-.2-.6-.4-1.1-.5-1.7s-.4-1.1-.5-1.7c-.2-.5-.3-1-.4-1.5h0c-.2.8-.4,1.6-.6,2.4-.3.9-.6,1.8-.9,2.8-.3,1-.5,1.8-.8,2.6,0,0-.2,0-.2,0Z"/>
      <path class="st2" d="M88.3,845.5c-.6,0-1.2-.2-1.7-.7-.4-.5-.7-1.1-.6-1.7,0-.6.2-1.2.7-1.7s1.1-.7,1.7-.7,1.3.2,1.7.7c.4.4.6,1.1.6,1.7s-.2,1.3-.7,1.7c-.4.4-1.1.7-1.7.7h0ZM86.2,861.8v-14.4c0-.2,0-.3.2-.3h3.7c.1,0,.2,0,.2.3v14.4c0,.2,0,.3-.2.3h-3.7c-.2,0-.3,0-.3-.3h0Z"/>
    </g>
  </g>
</svg>